<?xml version="1.0" encoding="UTF-8" standalone="no"?>
<!-- Created with Inkscape (http://www.inkscape.org/) -->

<svg
   width="64pt"
   height="64pt"
   viewBox="0 0 22.577778 22.577778"
   version="1.1"
   id="svg831"
   inkscape:version="1.1.1 (3bf5ae0d25, 2021-09-20)"
   sodipodi:docname="#1.svg"
   inkscape:export-filename="C:\Users\User\Desktop\Done Januari II\E\15 - Restaurant.png"
   inkscape:export-xdpi="576"
   inkscape:export-ydpi="576"
   xmlns:inkscape="http://www.inkscape.org/namespaces/inkscape"
   xmlns:sodipodi="http://sodipodi.sourceforge.net/DTD/sodipodi-0.dtd"
   xmlns="http://www.w3.org/2000/svg"
   xmlns:svg="http://www.w3.org/2000/svg"
   xmlns:rdf="http://www.w3.org/1999/02/22-rdf-syntax-ns#"
   xmlns:cc="http://creativecommons.org/ns#"
   xmlns:dc="http://purl.org/dc/elements/1.1/">
  <defs
     id="defs825">
    <pattern
       id="EMFhbasepattern"
       patternUnits="userSpaceOnUse"
       width="6"
       height="6"
       x="0"
       y="0" />
    <pattern
       id="EMFhbasepattern-9"
       patternUnits="userSpaceOnUse"
       width="6"
       height="6"
       x="0"
       y="0" />
    <pattern
       id="EMFhbasepattern-0"
       patternUnits="userSpaceOnUse"
       width="6"
       height="6"
       x="0"
       y="0" />
    <pattern
       id="EMFhbasepattern-7"
       patternUnits="userSpaceOnUse"
       width="6"
       height="6"
       x="0"
       y="0" />
    <pattern
       id="EMFhbasepattern-2"
       patternUnits="userSpaceOnUse"
       width="6"
       height="6"
       x="0"
       y="0" />
    <pattern
       id="EMFhbasepattern-98"
       patternUnits="userSpaceOnUse"
       width="6"
       height="6"
       x="0"
       y="0" />
    <pattern
       id="EMFhbasepattern-6"
       patternUnits="userSpaceOnUse"
       width="6"
       height="6"
       x="0"
       y="0" />
    <pattern
       id="EMFhbasepattern-01"
       patternUnits="userSpaceOnUse"
       width="6"
       height="6"
       x="0"
       y="0" />
    <pattern
       id="EMFhbasepattern-07"
       patternUnits="userSpaceOnUse"
       width="6"
       height="6"
       x="0"
       y="0" />
    <pattern
       id="EMFhbasepattern-8"
       patternUnits="userSpaceOnUse"
       width="6"
       height="6"
       x="0"
       y="0" />
    <pattern
       id="EMFhbasepattern-4"
       patternUnits="userSpaceOnUse"
       width="6"
       height="6"
       x="0"
       y="0" />
    <pattern
       id="EMFhbasepattern-40"
       patternUnits="userSpaceOnUse"
       width="6"
       height="6"
       x="0"
       y="0" />
    <pattern
       id="EMFhbasepattern-08"
       patternUnits="userSpaceOnUse"
       width="6"
       height="6"
       x="0"
       y="0" />
    <pattern
       id="EMFhbasepattern-04"
       patternUnits="userSpaceOnUse"
       width="6"
       height="6"
       x="0"
       y="0" />
    <pattern
       id="EMFhbasepattern-014"
       patternUnits="userSpaceOnUse"
       width="6"
       height="6"
       x="0"
       y="0" />
    <pattern
       id="EMFhbasepattern-27"
       patternUnits="userSpaceOnUse"
       width="6"
       height="6"
       x="0"
       y="0" />
    <pattern
       id="EMFhbasepattern-09"
       patternUnits="userSpaceOnUse"
       width="6"
       height="6"
       x="0"
       y="0" />
    <pattern
       id="EMFhbasepattern-5"
       patternUnits="userSpaceOnUse"
       width="6"
       height="6"
       x="0"
       y="0" />
    <pattern
       id="EMFhbasepattern-018"
       patternUnits="userSpaceOnUse"
       width="6"
       height="6"
       x="0"
       y="0" />
  </defs>
  <sodipodi:namedview
     id="base"
     pagecolor="#ffffff"
     bordercolor="#666666"
     borderopacity="1.0"
     inkscape:pageopacity="0.0"
     inkscape:pageshadow="2"
     inkscape:zoom="3.2460938"
     inkscape:cx="42.666667"
     inkscape:cy="42.666667"
     inkscape:document-units="pt"
     inkscape:current-layer="layer1"
     showgrid="false"
     units="pt"
     inkscape:window-width="1920"
     inkscape:window-height="1001"
     inkscape:window-x="-9"
     inkscape:window-y="41"
     inkscape:window-maximized="1"
     inkscape:pagecheckerboard="true"
     inkscape:showpageshadow="false"
     inkscape:object-paths="true"
     inkscape:snap-intersection-paths="true"
     inkscape:snap-smooth-nodes="true"
     inkscape:snap-midpoints="true"
     showguides="true"
     inkscape:snap-bbox="true"
     inkscape:bbox-nodes="true"
     inkscape:snap-nodes="false"
     inkscape:snap-global="true">
    <inkscape:grid
       type="xygrid"
       id="grid1378" />
    <sodipodi:guide
       position="0.97013831,21.607643"
       orientation="78.000048,0"
       id="guide1380"
       inkscape:locked="false" />
    <sodipodi:guide
       position="0.97013831,0.97013129"
       orientation="0,78.000005"
       id="guide1382"
       inkscape:locked="false" />
    <sodipodi:guide
       position="21.607639,0.97013129"
       orientation="-78.000048,0"
       id="guide1384"
       inkscape:locked="false" />
    <sodipodi:guide
       position="21.607639,21.607643"
       orientation="0,-78.000005"
       id="guide1386"
       inkscape:locked="false" />
  </sodipodi:namedview>
  <metadata
     id="metadata828">
    <rdf:RDF>
      <cc:Work
         rdf:about="">
        <dc:format>image/svg+xml</dc:format>
        <dc:type
           rdf:resource="http://purl.org/dc/dcmitype/StillImage" />
      </cc:Work>
    </rdf:RDF>
  </metadata>
  <g
     inkscape:label="Icon"
     inkscape:groupmode="layer"
     id="layer1"
     transform="translate(0,-274.42223)">
    <path
       id="path3081"
       style="color:#000000;display:inline;fill:#000000;stroke-width:0.999999;stroke-linecap:round;stroke-linejoin:round;-inkscape-stroke:none"
       d="m 14.460679,286.75617 0.420214,-4.63272 h 0.391124 c 0.494304,-10e-6 0.927278,-0.31134 1.09773,-0.75574 l 1.181773,0.006 c 0.235271,10e-4 0.417457,0.18493 0.417629,0.42021 l 0.0026,4.55255 c 3.31e-4,0.598 0.491962,1.08933 1.089973,1.08933 h 0.381424 c 0.598004,0 1.089331,-0.49133 1.089328,-1.08933 v -4.93332 c 0,-1.43624 -1.170389,-2.60727 -2.606624,-2.60727 h -1.298789 c -0.111704,-0.42914 -0.504165,-0.75769 -0.973607,-0.75769 H 14.968848 L 12.760459,276.944 c -0.04563,-0.0225 -0.09585,-0.0343 -0.146752,-0.0343 h -1.187591 v -0.80874 c -3e-6,-0.38845 -0.322692,-0.70856 -0.711134,-0.70856 H 9.9553917 c -0.00606,0 -0.012085,-1.5e-4 -0.018106,0 h -1.919e-4 c -0.3802098,0.01 -0.6904395,0.32618 -0.6904461,0.70856 v 0.80874 H 8.0590565 c -0.051775,-4.1e-4 -0.1029217,0.0113 -0.1493373,0.0343 l -2.1689535,1.08544 c -1.3236159,-0.29036 -3.0391623,-0.18033 -3.6545773,0.93288 -0.1151781,0.28475 0.022939,0.50642 0.2896282,0.50557 0.5188722,10e-4 0.7324467,0.12587 0.8986153,0.31549 0.440359,0.69654 0.6055147,1.56645 1.0970829,2.13533 0.32484,0.36736 0.7973061,0.68496 1.4810957,0.89216 l 0.3575065,3.93255 c 0.013803,0.19168 0.1384672,0.28393 0.277388,0.30903 l 0.8604708,0.14352 v 0.79581 c -0.1231983,-0.0228 -0.2424343,-0.047 -0.3568611,-0.0724 -0.1481853,-0.032 -0.299204,0.0407 -0.366556,0.17649 -1.0725425,2.30364 -1.1725475,4.32986 -1.1727097,6.59931 2.086e-4,0.10371 0.049024,0.20136 0.1318837,0.26376 2.3041206,1.22224 5.0386503,1.13984 7.8153503,0.64391 0.647941,0.45389 1.44217,0.56636 2.073274,0.23855 0.272025,-0.147 0.443172,-0.32663 0.519127,-0.48487 0.396898,0.33073 0.938044,0.52366 1.528287,0.52366 0.978272,0 1.838472,-0.53138 2.093965,-1.33888 0.04978,-0.15739 0.02413,-0.32656 -0.0472,-0.46028 0.07153,-0.13381 0.09704,-0.30334 0.0472,-0.46094 -0.203274,-0.64248 -0.78984,-1.1093 -1.512776,-1.27358 0.08852,-0.41751 0.04755,-0.84098 -0.143519,-1.20893 -0.07613,-0.14654 -0.214365,-0.24835 -0.359445,-0.29285 -0.04385,-0.14508 -0.1444,-0.28332 -0.290917,-0.35946 -0.375824,-0.19517 -0.809976,-0.23309 -1.236079,-0.13705 -0.381309,0.086 -0.755888,0.27943 -1.078334,0.56697 -0.165722,-0.90821 -0.452064,-1.83313 -0.945161,-2.81932 -0.07058,-0.14122 -0.231074,-0.21293 -0.383364,-0.17132 -0.10964,0.0294 -0.223779,0.0568 -0.341993,0.0821 v -0.81069 l 0.86241,-0.14352 c 0.168513,-0.0375 0.270828,-0.12801 0.276121,-0.2961 z m -3.696727,-10.65536 v 1.13846 c 0.0061,0.20902 0.163775,0.3371 0.345336,0.33228 h 1.426143 l 1.258706,0.62839 -1.590352,0.22691 H 8.4658124 l -1.5871185,-0.22627 1.2587036,-0.62903 h 1.4391613 c 0.1838177,7.3e-4 0.3330092,-0.14847 0.332291,-0.33228 v -1.13846 z m -5.2895354,2.55232 0.3122521,3.43671 c -0.4355132,-0.16648 -0.716082,-0.37891 -0.921239,-0.61093 -0.5538392,-0.63268 -0.6113935,-1.56817 -1.0925582,-2.13339 -0.184463,-0.21046 -0.4392534,-0.37151 -0.767377,-0.46095 0.7836987,-0.41733 1.6101923,-0.38677 2.4689221,-0.23144 z m 10.3081324,2.35385 c -0.0291,0.26185 -0.24726,0.45448 -0.510721,0.45448 h -0.331001 l 0.25025,-2.75144 h 0.462234 c 0.210539,0 0.365239,0.17217 0.341992,0.38143 z m -9.6319094,-2.24266 1.9717768,0.28317 0.3413438,6.14935 -1.7532639,-0.27476 z m 8.3700334,0 c -0.187022,2.05365 -0.371664,4.10443 -0.558563,6.15776 l -1.755852,0.27476 0.343283,-6.14935 z m -5.7310864,0.32454 h 3.0934294 l -0.341992,6.16746 H 9.1309336 Z m 7.8289264,0.37883 h 1.306543 c 1.078465,0 1.945274,0.86682 1.945274,1.94528 v 4.93267 c 0,0.24023 -0.187094,0.42798 -0.427327,0.42798 h -0.381425 c -0.240409,0 -0.427156,-0.18758 -0.427328,-0.42798 v -0.42732 h 0.378194 c 0.18205,-3.6e-4 0.329644,-0.14766 0.330354,-0.32971 6.63e-4,-0.18306 -0.147294,-0.33193 -0.330354,-0.33229 h -0.378838 l -6.64e-4,-0.8553 h 0.379486 c 0.18205,-3.7e-4 0.329642,-0.14766 0.330354,-0.32971 6.62e-4,-0.18305 -0.147294,-0.33194 -0.330354,-0.33229 h -0.379486 l -6.61e-4,-0.8553 h 0.380133 c 0.18306,-3.6e-4 0.33107,-0.14923 0.330355,-0.33229 -6.61e-4,-0.18205 -0.148305,-0.32936 -0.330355,-0.32971 h -0.380779 v -0.42797 c -3.3e-4,-0.59165 -0.486044,-1.0791 -1.077689,-1.08221 l -1.072516,-0.005 z m -2.71782,6.13321 -0.07629,0.84042 -1.997635,0.3323 H 8.8458321 l -1.9976378,-0.33165 -0.076286,-0.84043 1.9956982,0.31419 c 1.0388699,0.004 2.0988805,0.008 3.1373865,0 z m -1.240604,1.70477 v 0.81587 c -1.425084,0.1988 -3.2110346,0.16651 -4.6501596,-0.0259 v -0.79001 c 0.2688414,0.0474 0.5391857,0.0891 0.8087522,0.12994 h 3.0345944 c 0.26998,-0.0339 0.538279,-0.0852 0.806813,-0.12994 z m 0.854655,1.29297 c 0.499999,1.05799 0.790143,2.03833 0.917359,3.02231 -0.07714,0.14345 -0.138278,0.29122 -0.182953,0.44155 -0.377389,-0.0569 -0.753654,-0.005 -1.086094,0.16745 -0.146285,0.0759 -0.248223,0.21332 -0.292859,0.35814 -0.14509,0.0438 -0.283316,0.14502 -0.359446,0.29156 -0.114777,0.22103 -0.175102,0.46212 -0.186187,0.70985 -2.012967,0.12084 -4.3333659,0.18186 -6.1765095,-0.57407 0.060762,-1.49045 0.2734622,-2.87009 1.0046346,-4.41679 2.1173208,0.40153 4.3815459,0.46564 6.3620549,0 z m -5.833875,1.16302 c -0.2106086,-7.6e-4 -0.3815271,0.17018 -0.3807822,0.38079 6.619e-4,0.2096 0.1711865,0.37894 0.3807822,0.37819 0.2085863,-6.9e-4 0.3775055,-0.16961 0.3781907,-0.37819 6.62e-4,-0.2096 -0.1685948,-0.3801 -0.3781907,-0.38079 z m 9.18654,1.34663 -1.477863,1.47593 c -0.159799,-0.13044 -0.330935,-0.2389 -0.508136,-0.32389 0.07813,-0.26621 0.233036,-0.53817 0.466113,-0.77125 0.49031,-0.41861 1.011732,-0.55641 1.519886,-0.38079 z m 0.471287,0.46677 c 0.15568,0.43424 0.09564,1.04023 -0.383364,1.51923 -0.251358,0.25136 -0.545746,0.41336 -0.830733,0.48487 -0.06812,-0.17699 -0.160933,-0.34926 -0.277987,-0.51202 z m -2.151539,1.74665 c 0.414743,0.42838 0.463536,1.00984 0.314285,1.42954 l -1.90325,-1.90325 c 0.54417,-0.17672 1.084694,-0.0305 1.588965,0.47371 z m 2.677132,-0.34443 c 0.502593,0.10121 0.84825,0.42701 1.009162,0.7719 h -0.620626 c -0.190427,0 -0.329704,0.11809 -0.329704,0.33229 0,0.2142 0.144291,0.33036 0.329704,0.33036 h 0.613512 c -0.197309,0.41677 -0.669661,0.80616 -1.346627,0.80616 -0.555338,0 -1.029942,-0.23528 -1.28456,-0.54886 0.02605,-0.14517 0.03594,-0.29365 0.02843,-0.44284 0.415593,-0.0988 0.81995,-0.32409 1.158499,-0.66265 0.178992,-0.17899 0.327419,-0.37744 0.442197,-0.58636 z m -4.732913,0.33941 1.905835,1.90583 c -0.434288,0.15684 -1.04272,0.0963 -1.522467,-0.38336 -0.478901,-0.4789 -0.538875,-1.08824 -0.383368,-1.52247 z m -7.0033635,0.43314 c 1.7876282,0.68075 4.2550085,0.72645 6.2793015,0.49844 0.08041,0.27464 0.216245,0.5432 0.402761,0.78806 -2.210968,0.29291 -4.6790525,0.36845 -6.6865873,-0.57343 z"
       sodipodi:nodetypes="ccsccccsscsscsccccssssscccccccccccccccccccccscccccccccccccccccccccccccscccscccccccccccccccccccccsccsscsscccsccccsccccscccccccccccccccccccccccccccccsccccccscccccscccsssccccccsccscccccccccccccccc" />
  </g>
</svg>
