<?xml version="1.0" encoding="UTF-8" standalone="no"?>
<svg
   xmlns:dc="http://purl.org/dc/elements/1.1/"
   xmlns:cc="http://creativecommons.org/ns#"
   xmlns:rdf="http://www.w3.org/1999/02/22-rdf-syntax-ns#"
   xmlns:svg="http://www.w3.org/2000/svg"
   xmlns="http://www.w3.org/2000/svg"
   xmlns:sodipodi="http://sodipodi.sourceforge.net/DTD/sodipodi-0.dtd"
   xmlns:inkscape="http://www.inkscape.org/namespaces/inkscape"
   inkscape:export-ydpi="576"
   inkscape:export-xdpi="576"
   inkscape:export-filename="D:\Project Real\November\export\line,extended\png\2 - Boba.png"
   width="64pt"
   height="64pt"
   viewBox="0 0 22.577778 22.577778"
   version="1.1"
   id="svg831"
   inkscape:version="1.0 (4035a4fb49, 2020-05-01)"
   sodipodi:docname="3 - Chocolate chip.svg">
  <defs
     id="defs825">
    <pattern
       id="EMFhbasepattern"
       patternUnits="userSpaceOnUse"
       width="6"
       height="6"
       x="0"
       y="0" />
    <pattern
       id="EMFhbasepattern-9"
       patternUnits="userSpaceOnUse"
       width="6"
       height="6"
       x="0"
       y="0" />
    <pattern
       id="EMFhbasepattern-0"
       patternUnits="userSpaceOnUse"
       width="6"
       height="6"
       x="0"
       y="0" />
    <pattern
       id="EMFhbasepattern-7"
       patternUnits="userSpaceOnUse"
       width="6"
       height="6"
       x="0"
       y="0" />
    <pattern
       id="EMFhbasepattern-2"
       patternUnits="userSpaceOnUse"
       width="6"
       height="6"
       x="0"
       y="0" />
    <pattern
       id="EMFhbasepattern-98"
       patternUnits="userSpaceOnUse"
       width="6"
       height="6"
       x="0"
       y="0" />
    <pattern
       id="EMFhbasepattern-6"
       patternUnits="userSpaceOnUse"
       width="6"
       height="6"
       x="0"
       y="0" />
    <pattern
       id="EMFhbasepattern-01"
       patternUnits="userSpaceOnUse"
       width="6"
       height="6"
       x="0"
       y="0" />
    <pattern
       id="EMFhbasepattern-07"
       patternUnits="userSpaceOnUse"
       width="6"
       height="6"
       x="0"
       y="0" />
    <pattern
       id="EMFhbasepattern-8"
       patternUnits="userSpaceOnUse"
       width="6"
       height="6"
       x="0"
       y="0" />
    <pattern
       id="EMFhbasepattern-4"
       patternUnits="userSpaceOnUse"
       width="6"
       height="6"
       x="0"
       y="0" />
    <pattern
       id="EMFhbasepattern-40"
       patternUnits="userSpaceOnUse"
       width="6"
       height="6"
       x="0"
       y="0" />
    <pattern
       id="EMFhbasepattern-08"
       patternUnits="userSpaceOnUse"
       width="6"
       height="6"
       x="0"
       y="0" />
    <pattern
       id="EMFhbasepattern-04"
       patternUnits="userSpaceOnUse"
       width="6"
       height="6"
       x="0"
       y="0" />
    <pattern
       id="EMFhbasepattern-014"
       patternUnits="userSpaceOnUse"
       width="6"
       height="6"
       x="0"
       y="0" />
    <pattern
       id="EMFhbasepattern-27"
       patternUnits="userSpaceOnUse"
       width="6"
       height="6"
       x="0"
       y="0" />
    <pattern
       id="EMFhbasepattern-09"
       patternUnits="userSpaceOnUse"
       width="6"
       height="6"
       x="0"
       y="0" />
    <pattern
       id="EMFhbasepattern-5"
       patternUnits="userSpaceOnUse"
       width="6"
       height="6"
       x="0"
       y="0" />
    <pattern
       id="EMFhbasepattern-018"
       patternUnits="userSpaceOnUse"
       width="6"
       height="6"
       x="0"
       y="0" />
  </defs>
  <sodipodi:namedview
     id="base"
     pagecolor="#ffffff"
     bordercolor="#666666"
     borderopacity="1.0"
     inkscape:pageopacity="0.0"
     inkscape:pageshadow="2"
     inkscape:zoom="6.2578125"
     inkscape:cx="42.666667"
     inkscape:cy="42.666667"
     inkscape:document-units="pt"
     inkscape:current-layer="layer1"
     showgrid="false"
     units="pt"
     inkscape:window-width="1366"
     inkscape:window-height="706"
     inkscape:window-x="-8"
     inkscape:window-y="-8"
     inkscape:window-maximized="1"
     inkscape:pagecheckerboard="true"
     inkscape:showpageshadow="false"
     inkscape:object-paths="true"
     inkscape:snap-intersection-paths="true"
     inkscape:snap-smooth-nodes="true"
     inkscape:snap-midpoints="true"
     showguides="true"
     inkscape:snap-bbox="true"
     inkscape:bbox-nodes="true"
     inkscape:snap-nodes="false"
     inkscape:snap-global="true"
     inkscape:document-rotation="0">
    <inkscape:grid
       type="xygrid"
       id="grid1378" />
    <sodipodi:guide
       position="0.97013831,21.607643"
       orientation="78.000048,0"
       id="guide1380"
       inkscape:locked="false" />
    <sodipodi:guide
       position="0.97013831,0.97013129"
       orientation="0,78.000005"
       id="guide1382"
       inkscape:locked="false" />
    <sodipodi:guide
       position="21.607639,0.97013129"
       orientation="-78.000048,0"
       id="guide1384"
       inkscape:locked="false" />
    <sodipodi:guide
       position="21.607639,21.607643"
       orientation="0,-78.000005"
       id="guide1386"
       inkscape:locked="false" />
  </sodipodi:namedview>
  <metadata
     id="metadata828">
    <rdf:RDF>
      <cc:Work
         rdf:about="">
        <dc:format>image/svg+xml</dc:format>
        <dc:type
           rdf:resource="http://purl.org/dc/dcmitype/StillImage" />
        <dc:title></dc:title>
      </cc:Work>
    </rdf:RDF>
  </metadata>
  <g
     inkscape:label="Icon"
     inkscape:groupmode="layer"
     id="layer1"
     transform="translate(0,-274.42223)">
    <path
       id="path424"
       style="color:#000000;font-style:normal;font-variant:normal;font-weight:normal;font-stretch:normal;font-size:medium;line-height:normal;font-family:sans-serif;font-variant-ligatures:normal;font-variant-position:normal;font-variant-caps:normal;font-variant-numeric:normal;font-variant-alternates:normal;font-variant-east-asian:normal;font-feature-settings:normal;font-variation-settings:normal;text-indent:0;text-align:start;text-decoration:none;text-decoration-line:none;text-decoration-style:solid;text-decoration-color:#000000;letter-spacing:normal;word-spacing:normal;text-transform:none;writing-mode:lr-tb;direction:ltr;text-orientation:mixed;dominant-baseline:auto;baseline-shift:baseline;text-anchor:start;white-space:normal;shape-padding:0;shape-margin:0;inline-size:0;clip-rule:nonzero;display:inline;overflow:visible;visibility:visible;opacity:1;isolation:auto;mix-blend-mode:normal;color-interpolation:sRGB;color-interpolation-filters:linearRGB;solid-color:#000000;solid-opacity:1;vector-effect:none;fill:#000000;fill-opacity:1;fill-rule:nonzero;stroke:none;stroke-width:0.529167;stroke-linecap:round;stroke-linejoin:round;stroke-miterlimit:1.5;stroke-dasharray:none;stroke-dashoffset:0;stroke-opacity:1;color-rendering:auto;image-rendering:auto;shape-rendering:auto;text-rendering:auto;enable-background:accumulate;stop-color:#000000;stop-opacity:1"
       d="m 11.29019,275.39236 c -3.6727518,0 -6.6559558,2.98385 -6.6559588,6.65661 -3e-7,0.44427 0.044168,0.87818 0.1274243,1.2983 -2.2663821,1.06223 -3.79151463,3.36355 -3.7915167,6.02599 -2.85e-6,3.67275 2.9864527,6.65661 6.6592086,6.65661 1.3520533,0 2.6087306,-0.4071 3.6595426,-1.10131 1.05113,0.6941 2.310369,1.10131 3.662791,1.10131 3.672758,0 6.655961,-2.98386 6.655958,-6.65661 -2e-6,-2.64803 -1.548486,-4.93637 -3.791516,-6.00779 0.0856,-0.42573 0.130676,-0.86585 0.130674,-1.3165 -2e-6,-3.67276 -2.983856,-6.6566 -6.656607,-6.65661 z m 0,0.66573 c 3.312966,0 5.99088,2.67792 5.990882,5.99088 4e-6,3.31297 -2.677911,5.99283 -5.990882,5.99283 -3.3129716,0 -5.990237,-2.67986 -5.990233,-5.99283 2.7e-6,-3.31296 2.6772661,-5.99088 5.990233,-5.99088 z m -0.666376,1.33145 c -0.18294,6.7e-4 -0.330932,0.14927 -0.331563,0.33222 -7.32e-4,0.18389 0.147661,0.33352 0.331563,0.33415 0.184862,6.7e-4 0.334896,-0.14929 0.334163,-0.33415 -6.32e-4,-0.18391 -0.150265,-0.33295 -0.334163,-0.33222 z m 2.664204,6.7e-4 c -0.547566,0 -0.999893,0.44973 -0.999889,0.99729 -4e-6,0.54757 0.452323,0.99988 0.999889,0.99988 0.547564,0 0.997292,-0.45231 0.997288,-0.99988 4e-6,-0.54756 -0.449724,-0.99729 -0.997288,-0.99729 z m 0,0.66573 c 0.187777,0 0.331563,0.14378 0.331562,0.33156 1e-6,0.18778 -0.143785,0.33415 -0.331562,0.33415 -0.18778,0 -0.334165,-0.14637 -0.334163,-0.33415 -2e-6,-0.18778 0.146383,-0.33156 0.334163,-0.33156 z m -4.661382,0.66571 c -0.5475656,0 -0.997292,0.45038 -0.9972886,0.99795 -3.4e-6,0.54756 0.449723,0.99988 0.9972886,0.99988 0.5475651,0 1.0005427,-0.45232 1.000539,-0.99988 3.7e-6,-0.54757 -0.4529739,-0.99795 -1.000539,-0.99795 z m 0,0.66573 c 0.1877782,0 0.3341644,0.14444 0.3341631,0.33222 1.3e-6,0.18778 -0.1463849,0.33415 -0.3341631,0.33415 -0.1877786,0 -0.3315638,-0.14637 -0.3315628,-0.33415 -10e-7,-0.18778 0.1437842,-0.33222 0.3315628,-0.33222 z m 5.325807,0.66508 c -0.18294,6.7e-4 -0.330932,0.14927 -0.331563,0.33222 -7.32e-4,0.1839 0.147661,0.33352 0.331563,0.33415 0.184862,7.4e-4 0.334896,-0.14929 0.334162,-0.33415 -6.31e-4,-0.18391 -0.150264,-0.33295 -0.334162,-0.33222 z m -6.6572587,1.33145 c -0.1829398,6.4e-4 -0.3309323,0.14928 -0.3315628,0.33221 -7.323e-4,0.18391 0.1476607,0.33353 0.3315628,0.33417 0.1848624,7.3e-4 0.3348957,-0.14931 0.3341631,-0.33417 -6.325e-4,-0.1839 -0.1502647,-0.33293 -0.3341631,-0.33221 z m 4.6613817,10e-4 c -0.547565,0 -1.000542,0.45037 -1.000539,0.99794 -3e-6,0.54756 0.452974,0.99729 1.000539,0.99729 0.547564,0 0.997291,-0.44973 0.997289,-0.99729 2e-6,-0.54757 -0.449725,-0.99794 -0.997289,-0.99794 z m 0,0.66377 c 0.187778,0 0.331564,0.14639 0.331563,0.33417 1e-6,0.18778 -0.143785,0.33156 -0.331563,0.33156 -0.187779,0 -0.334815,-0.14378 -0.334813,-0.33156 -2e-6,-0.18778 0.147034,-0.33417 0.334813,-0.33417 z m 3.329279,0 c -0.547565,0 -1.000542,0.45234 -1.000539,0.9999 -3e-6,0.54757 0.452974,0.99728 1.000539,0.99728 0.547565,0 0.997291,-0.44971 0.997289,-0.99728 2e-6,-0.54756 -0.449724,-0.9999 -0.997289,-0.9999 z m 0,0.66573 c 0.187778,0 0.331564,0.14638 0.331563,0.33417 1e-6,0.18778 -0.143785,0.33156 -0.331563,0.33156 -0.187779,0 -0.334165,-0.14378 -0.334164,-0.33156 -1e-6,-0.18779 0.146385,-0.33417 0.334164,-0.33417 z m -5.3277573,6.7e-4 c -0.1829399,6.3e-4 -0.3309324,0.14927 -0.3315628,0.3322 -7.324e-4,0.18391 0.1476606,0.33354 0.3315628,0.33417 0.1848633,7.3e-4 0.3348963,-0.14929 0.3341633,-0.33417 -6.32e-4,-0.18389 -0.150264,-0.33293 -0.3341633,-0.3322 z m -5.0306509,1.28919 c 0.8365727,2.72071 3.3704478,4.70298 6.3627532,4.70298 0.790978,0 1.546588,-0.14578 2.250725,-0.39982 0.0572,0.34005 0.07867,0.68557 0.07867,1.06555 3e-6,3.31297 -2.677263,5.99088 -5.9902328,5.99088 -3.3129711,0 -5.9934854,-2.67791 -5.9934828,-5.99088 1.9e-6,-2.36294 1.3199848,-4.39165 3.2915729,-5.36871 z m 12.7209542,0.0182 c 1.953117,0.98674 3.293521,3.00927 3.293523,5.35051 3e-6,3.31296 -2.67726,5.99088 -5.990233,5.99088 -1.130953,0 -2.186413,-0.31338 -3.088083,-0.85686 1.478694,-1.22149 2.421709,-3.06892 2.421708,-5.13402 0,-0.45763 -0.03228,-0.89129 -0.118321,-1.3282 1.651985,-0.79599 2.930205,-2.24755 3.481406,-4.02231 z m -7.6896533,0.68975 c -0.5475652,0 -0.997942,0.45233 -0.9979386,0.99989 -3.4e-6,0.54756 0.4503734,0.99728 0.9979386,0.99728 0.5475653,0 0.9972923,-0.44972 0.9972893,-0.99728 3e-6,-0.54756 -0.449724,-0.99989 -0.9972893,-0.99989 z m 3.3279793,0 c -0.182939,6.4e-4 -0.330933,0.14928 -0.331563,0.33221 -7.32e-4,0.18391 0.147662,0.33353 0.331563,0.33417 0.184863,7.3e-4 0.334896,-0.14931 0.334163,-0.33417 -6.32e-4,-0.1839 -0.150264,-0.33293 -0.334163,-0.33221 z m -3.3279793,0.66573 c 0.1877793,0 0.3341653,0.14638 0.3341633,0.33416 2e-6,0.18778 -0.146384,0.33157 -0.3341633,0.33157 -0.1877786,0 -0.3315637,-0.14379 -0.3315627,-0.33157 -10e-7,-0.18778 0.1437841,-0.33416 0.3315627,-0.33416 z m 8.6537863,0.66573 c -0.547566,0 -0.997292,0.45037 -0.997288,0.99793 -4e-6,0.54756 0.449722,0.99989 0.997288,0.99989 0.547566,0 1.000542,-0.45233 1.000538,-0.99989 4e-6,-0.54756 -0.452972,-0.99793 -1.000538,-0.99793 z m -13.9782928,0.66571 c -0.5475651,0 -1.0005423,0.45038 -1.000539,0.99795 -3.3e-6,0.54756 0.4529739,0.99989 1.000539,0.99989 0.5475655,0 0.9972919,-0.45233 0.9972886,-0.99989 3.3e-6,-0.54757 -0.4497231,-0.99795 -0.9972886,-0.99795 z m 13.9782928,0 c 0.187778,0 0.334164,0.14444 0.334163,0.33222 1e-6,0.18778 -0.146385,0.33417 -0.334163,0.33417 -0.187779,0 -0.331565,-0.14639 -0.331563,-0.33417 -2e-6,-0.18778 0.143784,-0.33222 0.331563,-0.33222 z m -13.9782928,0.66639 c 0.1877787,0 0.3315641,0.14378 0.3315628,0.33156 1.3e-6,0.18778 -0.1437841,0.33416 -0.3315628,0.33416 -0.1877783,0 -0.3348144,-0.14638 -0.3348132,-0.33416 -1.2e-6,-0.18778 0.1470349,-0.33156 0.3348132,-0.33156 z m 11.3147398,0.66572 c -0.547566,0 -0.997293,0.44973 -0.99729,0.99729 -3e-6,0.54757 0.449724,1.00054 0.99729,1.00054 0.547565,0 1.000541,-0.45297 1.000538,-1.00054 3e-6,-0.54756 -0.452973,-0.99729 -1.000538,-0.99729 z m -13.3138675,0.66507 c -0.1829396,6.4e-4 -0.3309322,0.14928 -0.3315627,0.33222 -7.289e-4,0.1839 0.1476606,0.33352 0.3315627,0.33417 0.1848625,7.3e-4 0.3348958,-0.14931 0.3341632,-0.33417 -6.324e-4,-0.18391 -0.1502648,-0.33294 -0.3341632,-0.33222 z m 17.3088715,0 c -0.182939,6.4e-4 -0.330932,0.14928 -0.331562,0.33222 -7.33e-4,0.1839 0.14766,0.33352 0.331562,0.33417 0.184862,7.3e-4 0.334897,-0.14931 0.334163,-0.33417 -6.31e-4,-0.18391 -0.150264,-0.33294 -0.334163,-0.33222 z m -3.995004,6.7e-4 c 0.187778,0 0.334164,0.14378 0.334163,0.33156 1e-6,0.18778 -0.146385,0.33417 -0.334163,0.33417 -0.187779,0 -0.331565,-0.14639 -0.331563,-0.33417 -2e-6,-0.18778 0.143784,-0.33156 0.331563,-0.33156 z m -8.6537867,1.3308 c -0.1829394,6.3e-4 -0.3309323,0.14927 -0.3315628,0.33222 -7.323e-4,0.18389 0.1476607,0.33353 0.3315628,0.33416 0.1848624,7.3e-4 0.3348957,-0.1493 0.3341631,-0.33416 -6.325e-4,-0.18389 -0.1502647,-0.33293 -0.3341631,-0.3322 z m 4.6600817,0 c -0.18294,6.3e-4 -0.330933,0.14927 -0.331563,0.33222 -7.32e-4,0.18389 0.147661,0.33353 0.331563,0.33416 0.184862,7.3e-4 0.334895,-0.1493 0.334163,-0.33416 -6.33e-4,-0.1839 -0.150265,-0.33295 -0.334163,-0.33222 z m -7.3210348,10e-4 c -0.5475651,0 -1.0005423,0.44974 -1.000539,0.9973 -3.3e-6,0.54757 0.4529739,0.99793 1.000539,0.99793 0.5475655,0 0.9972919,-0.45036 0.9972886,-0.99793 3.3e-6,-0.54756 -0.4497231,-0.9973 -0.9972886,-0.9973 z m 5.3245065,0 c -0.5475652,0 -0.997942,0.44974 -0.9979386,0.9973 -3.4e-6,0.54757 0.4503734,0.99793 0.9979386,0.99793 0.5475653,0 0.9972923,-0.45036 0.9972893,-0.99793 3e-6,-0.54756 -0.449724,-0.9973 -0.9972893,-0.9973 z m 8.6537863,0 c -0.547566,0 -0.997292,0.44974 -0.997288,0.9973 -4e-6,0.54757 0.449722,0.99793 0.997288,0.99793 0.547566,0 1.000542,-0.45036 1.000538,-0.99793 4e-6,-0.54756 -0.452972,-0.9973 -1.000538,-0.9973 z m -1.997178,0.66442 c -0.18294,6.5e-4 -0.330933,0.14929 -0.331563,0.33222 -7.32e-4,0.1839 0.14766,0.33354 0.331563,0.33417 0.184862,7.3e-4 0.334895,-0.14931 0.334163,-0.33417 -6.33e-4,-0.1839 -0.150264,-0.33293 -0.334163,-0.33222 z m -11.9811148,10e-4 c 0.1877787,0 0.3315641,0.14379 0.3315628,0.33156 1.3e-6,0.18778 -0.1437841,0.33416 -0.3315628,0.33416 -0.1877783,0 -0.3348144,-0.14638 -0.3348132,-0.33416 -1.2e-6,-0.18777 0.1470349,-0.33156 0.3348132,-0.33156 z m 5.3245065,0 c 0.1877793,0 0.3341653,0.14379 0.3341633,0.33156 2e-6,0.18778 -0.146384,0.33416 -0.3341633,0.33416 -0.1877786,0 -0.3315637,-0.14638 -0.3315627,-0.33416 -10e-7,-0.18777 0.1437841,-0.33156 0.3315627,-0.33156 z m 8.6537863,0 c 0.187778,0 0.334164,0.14379 0.334163,0.33156 1e-6,0.18778 -0.146385,0.33416 -0.334163,0.33416 -0.187779,0 -0.331565,-0.14638 -0.331563,-0.33416 -2e-6,-0.18777 0.143784,-0.33156 0.331563,-0.33156 z m -3.326679,1.3295 c -0.547565,0 -1.000542,0.45232 -1.000539,0.99988 -3e-6,0.54758 0.452974,0.9973 1.000539,0.9973 0.547565,0 0.997291,-0.44972 0.997289,-0.9973 2e-6,-0.54756 -0.449724,-0.99988 -0.997289,-0.99988 z m -7.9906607,0.66573 c -0.5475651,0 -0.997942,0.45232 -0.9979387,0.99988 -3.3e-6,0.54756 0.4503736,0.99794 0.9979387,0.99794 0.5475651,0 0.9998923,-0.45038 0.9998889,-0.99794 3.4e-6,-0.54756 -0.4523238,-0.99988 -0.9998889,-0.99988 z m 7.9906607,0 c 0.187778,0 0.331564,0.14638 0.331563,0.33415 1e-6,0.18778 -0.143785,0.33157 -0.331563,0.33157 -0.187779,0 -0.334165,-0.14379 -0.334164,-0.33157 -1e-6,-0.18777 0.146385,-0.33415 0.334164,-0.33415 z m -5.3277573,6.7e-4 c -0.1829395,6.3e-4 -0.3309324,0.14927 -0.3315628,0.3322 -7.324e-4,0.1839 0.1476606,0.33354 0.3315628,0.33417 0.1848633,7.3e-4 0.3348963,-0.14931 0.3341633,-0.33417 -6.32e-4,-0.18389 -0.150264,-0.33293 -0.3341633,-0.3322 z m 7.9887093,0 c -0.182939,6.3e-4 -0.330931,0.14927 -0.331561,0.3322 -7.33e-4,0.1839 0.14766,0.33354 0.331561,0.33417 0.184863,7.3e-4 0.334897,-0.14931 0.334164,-0.33417 -6.32e-4,-0.18389 -0.150265,-0.33293 -0.334164,-0.3322 z m -10.6516127,0.66516 c 0.1877786,0 0.3341644,0.14639 0.3341631,0.33417 1.3e-6,0.18778 -0.1463845,0.33156 -0.3341631,0.33156 -0.1877787,0 -0.3315641,-0.14378 -0.3315628,-0.33156 -1.3e-6,-0.18778 0.1437841,-0.33417 0.3315628,-0.33417 z" />
  </g>
</svg>
