<?xml version="1.0" encoding="utf-8"?>
<!-- Generator: Adobe Illustrator 25.0.1, SVG Export Plug-In . SVG Version: 6.00 Build 0)  -->
<svg version="1.1" id="Layer_1" xmlns="http://www.w3.org/2000/svg" xmlns:xlink="http://www.w3.org/1999/xlink" x="0px" y="0px"
	 viewBox="0 0 91 91" style="enable-background:new 0 0 91 91;" xml:space="preserve">
<style type="text/css">
	.st0{fill:#FFFFFF;}
</style>
<g>
	<g>
		<g>
			<path class="st0" d="M85.5,81.8L51.4,41.3c-3.2-3.2-8.3-3.1-11.4,0L6,81.6"/>
			<path d="M85.5,84c-0.6,0-1.3-0.3-1.7-0.8L49.8,42.8c-1.1-1.1-2.5-1.6-4.1-1.6s-3,0.6-4.1,1.6l-34,40.2c-0.8,0.9-2.2,1.1-3.1,0.3
				s-1.1-2.2-0.3-3.2l34-40.3c0,0,0.1-0.1,0.1-0.1c1.9-1.9,4.5-3,7.3-3c2.8,0,5.3,1.1,7.3,3c0,0,0.1,0.1,0.1,0.1l34.1,40.4
				c0.8,0.9,0.7,2.4-0.3,3.2C86.6,83.8,86,84,85.5,84z"/>
		</g>
		<path d="M53.8,84H2.5c-1.2,0-2.2-1-2.2-2.2c0-1.2,1-2.2,2.2-2.2h51.3c1.2,0,2.2,1,2.2,2.2C56.1,83,55.1,84,53.8,84z"/>
		<path d="M64.2,84h-1.5c-1.2,0-2.2-1-2.2-2.2c0-1.2,1-2.2,2.2-2.2h1.5c1.2,0,2.2,1,2.2,2.2C66.4,83,65.4,84,64.2,84z"/>
		<path d="M88.7,84H72c-1.2,0-2.2-1-2.2-2.2c0-1.2,1-2.2,2.2-2.2h16.7c1.2,0,2.2,1,2.2,2.2C90.9,83,89.9,84,88.7,84z"/>
		<path d="M49.6,63.4c-1.2,0-2.2-1-2.2-2.2s1-2.2,2.2-2.2h0c1.2,0,2.2,1,2.2,2.2S50.8,63.4,49.6,63.4z M42.2,63.4
			c-1.2,0-2.2-1-2.2-2.2s1-2.2,2.2-2.2h0c1.2,0,2.2,1,2.2,2.2S43.4,63.4,42.2,63.4z M34.8,63.4c-1.2,0-2.2-1-2.2-2.2s1-2.2,2.2-2.2
			h0c1.2,0,2.2,1,2.2,2.2S36.1,63.4,34.8,63.4z"/>
		<path d="M53.3,57.1c-1.2,0-2.2-1-2.2-2.2c0-1.2,1-2.2,2.2-2.2h0c1.2,0,2.2,1,2.2,2.2C55.5,56.1,54.5,57.1,53.3,57.1z M45.9,57.1
			c-1.2,0-2.2-1-2.2-2.2c0-1.2,1-2.2,2.2-2.2h0c1.2,0,2.2,1,2.2,2.2C48.1,56.1,47.1,57.1,45.9,57.1z"/>
		<path d="M39.6,55L39.6,55c-1.3,0-2.3-1-2.3-2.2c0-1.2,1-2.2,2.2-2.2c1.2,0,2.2,1,2.2,2.2C41.8,54,40.8,55,39.6,55z"/>
		<path d="M44.1,49.8c-1.2,0-2.2-1-2.2-2.2c0-1.2,1-2.2,2.2-2.2h0c1.2,0,2.2,1,2.2,2.2C46.3,48.8,45.3,49.8,44.1,49.8z"/>
		<path d="M59.7,64.4c-1.2,0-2.2-1-2.2-2.2c0-1.2,1-2.2,2.2-2.2h0c1.2,0,2.2,1,2.2,2.2C61.9,63.4,60.9,64.4,59.7,64.4z"/>
		<path d="M26.5,72.7c-1.2,0-2.2-1-2.2-2.2c0-1.2,1-2.2,2.2-2.2h0c1.2,0,2.2,1,2.2,2.2C28.7,71.7,27.7,72.7,26.5,72.7z"/>
		<path d="M49.9,27.8c-1.2,0-2.2-1-2.2-2.2c0-1.2,1-2.2,2.2-2.2c1.2,0,2.2,1,2.2,2.2v0C52.1,26.9,51.1,27.8,49.9,27.8z"/>
		<path d="M45.7,11.4c-1.2,0-2.2-1-2.2-2.2c0-1.2,1-2.2,2.2-2.2c1.2,0,2.2,1,2.2,2.2v0C47.9,10.4,46.9,11.4,45.7,11.4z"/>
		<path d="M43,32.9c-1.2,0-2.2-1-2.2-2.2c0-1.2,1-2.2,2.2-2.2c1.2,0,2.2,1,2.2,2.2v0C45.2,31.9,44.2,32.9,43,32.9z M43,25.5
			c-1.2,0-2.2-1-2.2-2.2c0-1.2,1-2.2,2.2-2.2c1.2,0,2.2,1,2.2,2.2v0C45.2,24.5,44.2,25.5,43,25.5z"/>
	</g>
</g>
</svg>
