<?xml version="1.0" encoding="utf-8"?>
<!-- Generator: Adobe Illustrator 25.0.1, SVG Export Plug-In . SVG Version: 6.00 Build 0)  -->
<svg version="1.1" id="Layer_1" xmlns="http://www.w3.org/2000/svg" xmlns:xlink="http://www.w3.org/1999/xlink" x="0px" y="0px"
	 viewBox="0 0 528 528" style="enable-background:new 0 0 528 528;" xml:space="preserve">
<style type="text/css">
	.st0{fill:#FFFFFF;}
	.st1{fill:#EEEEEE;}
	.st2{fill:#FFFFFF;stroke:#000000;stroke-width:12;stroke-linejoin:round;stroke-miterlimit:10;}
	.st3{fill:#FFFFFF;stroke:#000000;stroke-width:12;stroke-miterlimit:10;}
</style>
<path d="M330,495H198c0,0-55-132-55-247.5c0-38.5,11-60.5,60.5-60.5s71.5,0,121,0s60.5,22,60.5,60.5C385,363,330,495,330,495z"/>
<rect x="242" y="165" class="st0" width="44" height="143"/>
<path class="st1" d="M319,462c12.8-35.7,35-105.4,41.9-174.7c-25.9,16.7-68.4,8.6-95-1c-15.7-5.6-29.3-14.2-45.8-18.5
	c-8.5-2.2-16.9-6.3-25.7-8.3c-9.1-2-19.4-1.1-29,0.8C168.1,338,194.6,421.7,209,462H319L319,462z"/>
<polygon class="st2" points="286,165 242,165 242,33 286,77 "/>
<path class="st3" d="M363,170.5c0,9.1-7.4,16.5-16.5,16.5h-165c-9.1,0-16.5-7.4-16.5-16.5v-22c0-9.1,7.4-16.5,16.5-16.5h165
	c9.1,0,16.5,7.4,16.5,16.5V170.5z"/>
<g>
	<circle cx="209" cy="352" r="11"/>
	<circle cx="231" cy="319" r="11"/>
	<circle cx="253" cy="352" r="11"/>
</g>
</svg>
