<?xml version="1.0" encoding="iso-8859-1"?>
<!-- Generator: Adobe Illustrator 18.1.1, SVG Export Plug-In . SVG Version: 6.00 Build 0)  -->
<svg version="1.1" id="Capa_1" xmlns="http://www.w3.org/2000/svg" xmlns:xlink="http://www.w3.org/1999/xlink" x="0px" y="0px"
	 viewBox="0 0 438.904 438.904" style="enable-background:new 0 0 438.904 438.904;" xml:space="preserve">
<g>
	<path d="M306.602,12.805h-160.54c-1.214,0-2.366,0.219-3.481,0.529c-3.397-0.317-6.817-0.529-10.28-0.529
		C59.351,12.805,0,84.5,0,172.628s59.351,159.823,132.302,159.823c3.463,0,6.883-0.212,10.28-0.529
		c1.115,0.31,2.267,0.529,3.481,0.529h92.453v80.221c0,0.073,0.02,0.14,0.021,0.212c0.008,0.486,0.084,0.969,0.147,1.456
		c0.05,0.386,0.074,0.777,0.156,1.152c0.079,0.357,0.218,0.705,0.329,1.059c0.152,0.486,0.294,0.974,0.5,1.434
		c0.028,0.063,0.037,0.129,0.067,0.191c0.121,0.261,0.295,0.477,0.431,0.726c0.243,0.443,0.479,0.887,0.771,1.298
		c0.237,0.336,0.509,0.63,0.774,0.938c0.284,0.33,0.559,0.662,0.873,0.962c0.298,0.283,0.621,0.526,0.942,0.778
		c0.345,0.272,0.684,0.546,1.057,0.782c0.319,0.202,0.654,0.363,0.989,0.536c0.417,0.217,0.83,0.434,1.272,0.606
		c0.343,0.133,0.697,0.222,1.051,0.326c0.452,0.133,0.897,0.271,1.368,0.355c0.42,0.076,0.847,0.094,1.275,0.128
		c0.344,0.027,0.672,0.103,1.023,0.103c0.084,0,0.161-0.023,0.245-0.025c0.437-0.008,0.873-0.08,1.311-0.132
		c0.429-0.052,0.863-0.08,1.279-0.172c0.346-0.077,0.682-0.212,1.025-0.318c0.49-0.153,0.982-0.294,1.445-0.501
		c0.066-0.029,0.135-0.039,0.2-0.069l25.19-11.727l29.02,11.958c0.101,0.042,0.206,0.054,0.307,0.093
		c0.591,0.227,1.196,0.409,1.815,0.548c0.205,0.046,0.407,0.095,0.612,0.131c0.724,0.127,1.457,0.212,2.199,0.215
		c0.01,0,0.021,0.003,0.031,0.003c0.002,0,0.004,0,0.006,0c0.002,0,0.004,0,0.006,0c0.008,0,0.017-0.003,0.025-0.003
		c0.822-0.002,1.631-0.109,2.43-0.264c0.214-0.041,0.424-0.09,0.637-0.142c0.806-0.199,1.597-0.448,2.35-0.794
		c0.018-0.008,0.037-0.01,0.055-0.018l24.182-11.256l18.295,10.689c0.091,0.053,0.19,0.078,0.281,0.129
		c0.575,0.318,1.17,0.588,1.784,0.816c0.192,0.071,0.381,0.148,0.576,0.21c0.716,0.228,1.446,0.408,2.194,0.51
		c0.117,0.016,0.233,0.012,0.35,0.025c0.466,0.051,0.933,0.099,1.405,0.099c0.129,0,0.259-0.038,0.388-0.042
		c0.542-0.017,1.072-0.091,1.606-0.174c0.34-0.053,0.678-0.084,1.016-0.165c0.695-0.166,1.365-0.407,2.024-0.684
		c0.152-0.064,0.311-0.086,0.462-0.156l0.14-0.065c0.008-0.004,0.016-0.007,0.024-0.011l24.02-11.18l17.775,10.386
		c2.141,1.54,4.749,2.471,7.589,2.471c7.205,0,13.044-5.84,13.044-13.044V172.628C438.904,84.5,379.553,12.805,306.602,12.805z
		 M26.088,172.628c0-73.743,47.646-133.735,106.213-133.735s106.213,59.992,106.213,133.735s-47.646,133.735-106.213,133.735
		S26.088,246.371,26.088,172.628z M204.617,306.363c13.086-10.362,24.579-23.422,33.899-38.561v38.561H204.617z M395.678,386.707
		l-24.187,11.258l-18.293-10.691c-3.694-2.163-8.212-2.371-12.086-0.567l-25.191,11.726l-29.017-11.957
		c-3.365-1.389-7.169-1.301-10.474,0.232l-11.827,5.505V172.628c0-55.903-23.901-105.162-59.987-133.735h101.985
		c58.567,0,106.213,59.992,106.213,133.735v217.598l-5.051-2.952C404.066,385.111,399.554,384.903,395.678,386.707z"/>
	<path d="M132.302,125.872c-22.296,0-40.436,20.975-40.436,46.756s18.139,46.756,40.436,46.756s40.436-20.975,40.436-46.756
		S154.598,125.872,132.302,125.872z M132.302,193.296c-7.777,0-14.347-9.464-14.347-20.668s6.57-20.668,14.347-20.668
		s14.347,9.464,14.347,20.668S140.079,193.296,132.302,193.296z"/>
</g>
<g>
</g>
<g>
</g>
<g>
</g>
<g>
</g>
<g>
</g>
<g>
</g>
<g>
</g>
<g>
</g>
<g>
</g>
<g>
</g>
<g>
</g>
<g>
</g>
<g>
</g>
<g>
</g>
<g>
</g>
</svg>
