<?xml version="1.0" encoding="utf-8"?>
<!-- Generator: Adobe Illustrator 25.0.1, SVG Export Plug-In . SVG Version: 6.00 Build 0)  -->
<svg version="1.1" id="Layer_1" xmlns="http://www.w3.org/2000/svg" xmlns:xlink="http://www.w3.org/1999/xlink" x="0px" y="0px"
	 viewBox="0 0 800 800" style="enable-background:new 0 0 800 800;" xml:space="preserve">
<style type="text/css">
	.st0{fill:#FFFFFF;stroke:#000000;stroke-miterlimit:10;}
</style>
<g id="water">
	<polygon class="st0" points="400,18 204,295 134,551 241,720 400,788 596,701 672,530.9 593,276 	"/>
	<path d="M418.9,7.9c-5-5.1-11.8-8-19-7.9c-7.1,0-14,2.9-18.9,8c-11.1,11.3-271.2,279.6-271.2,501.8C109.8,669.8,240,800,400,800
		s290.2-130.2,290.2-290.2C690.2,284,430,19,418.9,7.9z M400,746.8c-130.7,0-236.9-106.3-236.9-236.9c0-167.9,177.8-378.7,237-444.2
		c59.3,64.9,236.8,273.6,236.8,444.2C636.9,640.5,530.6,746.8,400,746.8z"/>
	<path d="M314,424.4c-5.1,0-9.6,1.9-12.8,5.5c-3.1,3.5-4.7,8.5-4.7,14.8v29.6h-42.7v-29.6c0-6.4-1.6-11.4-4.9-14.9
		c-3.3-3.5-7.8-5.4-12.9-5.4c-5.3,0-9.8,1.9-12.9,5.6c-3.1,3.5-4.6,8.4-4.6,14.7v96.1c0,6.3,1.6,11.3,4.7,14.8
		c3.2,3.7,7.7,5.6,12.9,5.6c5.1,0,9.6-1.9,12.9-5.4c3.3-3.5,4.9-8.5,4.9-14.9v-35.7h42.7v35.7c0,6.3,1.6,11.3,4.7,14.8
		c3.2,3.7,7.7,5.6,12.9,5.6c5.1,0,9.6-1.9,12.9-5.4c3.3-3.5,4.9-8.5,4.9-14.9v-96.1c0-6.4-1.6-11.4-4.9-14.9
		C323.6,426.2,319.1,424.4,314,424.4z"/>
	<path d="M424.9,606.6c-2.6-2-6-3-10.3-3h-19c1.7-1.5,3.9-3.4,6.6-5.7c6.1-5,10.3-8.5,12.9-10.8c2.9-2.6,5.7-6.2,8.4-10.6
		c2.9-4.8,4.4-10.2,4.4-16.1c0-3.8-0.7-7.5-2.1-11c-1.4-3.5-3.4-6.7-6-9.3c-2.5-2.7-5.5-4.8-9-6.4c-4.9-2.2-10.8-3.3-17.6-3.3
		c-5.7,0-10.7,0.9-15.1,2.6c-4.4,1.7-8.1,4.1-11,7c-2.9,2.9-5.1,6.2-6.6,9.8c-1.5,3.6-2.2,7.1-2.2,10.5c0,4.6,1.9,7.5,3.5,9.1
		c2.3,2.3,5.3,3.5,8.7,3.5c4.9,0,7.7-2.2,9.2-4.1c1.6-1.9,2.9-4.4,4-7.7c1-2.9,1.4-3.7,1.4-3.7h0c2-3,4.4-4.4,7.7-4.4
		c1.6,0,3,0.3,4.3,1c1.2,0.6,2.2,1.5,2.9,2.7c0.7,1.2,1,2.5,1,4c0,1.6-0.4,3.2-1.2,4.9c-0.9,1.9-2.2,3.8-4,5.7
		c-1.9,2-4.3,4.1-7.2,6.1c-2.1,1.4-5.2,4.1-9.7,8.2c-4.3,3.9-9.1,8.7-14.5,14.2c-1.7,1.8-3.1,4.1-4.5,7c-1.4,3.1-2.1,5.6-2.1,7.8
		c0,3.6,1.4,6.9,4.1,9.5c2.7,2.7,6.3,4,10.7,4h43.5c4.1,0,7.4-1.2,9.7-3.7c2.2-2.3,3.4-5.3,3.4-8.6
		C429.4,612.1,427.8,608.9,424.9,606.6z"/>
	<path d="M565.7,456.9c-5.1-10.4-12.8-18.5-22.7-24.2c-9.8-5.6-21.7-8.4-35.2-8.4c-10,0-19,1.6-26.9,4.7c-8,3.2-14.9,7.9-20.6,13.9
		c-5.6,6-9.9,13.4-12.8,21.9c-2.9,8.3-4.3,17.6-4.3,27.5c0,9.7,1.4,18.8,4.1,27.2c2.8,8.6,7,16,12.5,22.1c5.6,6.2,12.6,11,20.8,14.4
		c8.1,3.3,17.4,5,27.6,5c10.2,0,19.5-1.6,27.5-4.9c8.2-3.3,15.1-8.1,20.8-14.4c5.6-6.2,9.8-13.6,12.6-21.9
		c2.7-8.2,4.1-17.4,4.1-27.4C573.2,479.1,570.7,467.1,565.7,456.9z M533.3,514.5c-2.7,5.7-6.2,9.7-10.6,12.4c-4.5,2.7-9.3,4-14.7,4
		c-4.2,0-8-0.8-11.4-2.3c-3.4-1.5-6.5-3.8-9.1-6.9c-2.7-3.1-4.8-7.2-6.3-12c-1.6-5.1-2.4-10.9-2.4-17.2c0-6.3,0.8-12,2.4-17
		c1.5-4.8,3.6-8.8,6.1-11.8c2.5-3,5.4-5.2,8.9-6.7c3.5-1.5,7.4-2.3,11.5-2.3c6,0,11.1,1.4,15.6,4.2c4.5,2.8,7.8,6.9,10.3,12.5
		c2.6,5.8,3.9,12.9,3.9,21.1C537.5,501.2,536.1,508.7,533.3,514.5z"/>
</g>
</svg>
