<?xml version="1.0" encoding="utf-8"?>
<!-- Generator: Adobe Illustrator 25.0.1, SVG Export Plug-In . SVG Version: 6.00 Build 0)  -->
<svg version="1.1" id="Layer_1" xmlns="http://www.w3.org/2000/svg" xmlns:xlink="http://www.w3.org/1999/xlink" x="0px" y="0px"
	 viewBox="0 0 2944.2 512" style="enable-background:new 0 0 2944.2 512;" xml:space="preserve">
<style type="text/css">
	.st0{fill:#FF6600;stroke:#FFFFFF;stroke-miterlimit:10;}
	.st1{fill:#FFFFFF;}
	.st2{font-family:'Satoshi-Regular';}
	.st3{font-size:496.0712px;}
	.st4{letter-spacing:-29;}
</style>
<g>
	<path class="st0" d="M462,512H50c-27.5,0-50-22.5-50-50L0,50C0,22.5,22.5,0,50,0l412,0c27.5,0,50,22.5,50,50v412
		C512,489.5,489.5,512,462,512z"/>
	<g>
		<path class="st1" d="M394.3,120.6c16.3,16.7,29,36.1,37.8,58.4c8.9,22.3,13.3,46.3,13.3,72.1c0,52.7-18.3,97.4-54.9,134.1
			c-36.6,36.7-81.3,55.1-134,55.1c-40,0-75.7-10.5-107.1-31.5l-40.3,47.5L83,434.9l40.5-47.6c-38-36.9-57-81.7-57-134.6
			c0-34.6,8.4-66.7,25.2-96.3c16.8-29.6,39.7-52.7,68.8-69.4c29-16.6,60.9-25,95.7-25c41.9,0,80,12,114.2,36.1l35.1-42.4l25.8,21.4
			L394.3,120.6z M146.9,359.8l198.7-233.7c-27.5-19.4-57.6-29-90.3-29c-26.6,0-51.9,6.9-75.7,20.8c-23.8,13.9-42.5,32.6-55.9,56.1
			c-13.4,23.5-20.1,49.8-20.1,78.9C103.7,294.6,118.1,330.2,146.9,359.8z M370.4,148.7L173,381.1c24.9,16.1,52.3,24.1,82.2,24.1
			c27.9,0,53.8-6.8,77.5-20.3c23.8-13.6,42.3-32.1,55.6-55.6c13.3-23.5,20-49.7,20-78.4C408.3,211,395.7,177,370.4,148.7z"/>
	</g>
</g>
<text transform="matrix(1 0 0 1 578.7119 386.4473)" class="st2 st3 st4">hoy nos falta</text>
</svg>
