<?xml version="1.0" encoding="utf-8"?>
<!-- Generator: Adobe Illustrator 25.0.1, SVG Export Plug-In . SVG Version: 6.00 Build 0)  -->
<svg version="1.1"
	 id="svg831" xmlns:cc="http://creativecommons.org/ns#" xmlns:dc="http://purl.org/dc/elements/1.1/" xmlns:inkscape="http://www.inkscape.org/namespaces/inkscape" xmlns:rdf="http://www.w3.org/1999/02/22-rdf-syntax-ns#" xmlns:sodipodi="http://sodipodi.sourceforge.net/DTD/sodipodi-0.dtd" xmlns:svg="http://www.w3.org/2000/svg"
	 xmlns="http://www.w3.org/2000/svg" xmlns:xlink="http://www.w3.org/1999/xlink" x="0px" y="0px" viewBox="0 0 64 64"
	 style="enable-background:new 0 0 64 64;" xml:space="preserve">
<style type="text/css">
	.st0{fill:#FFFFFF;}
</style>
<sodipodi:namedview  bordercolor="#666666" borderopacity="1.0" id="base" inkscape:bbox-nodes="true" inkscape:current-layer="layer1" inkscape:cx="42.666667" inkscape:cy="42.666667" inkscape:document-rotation="0" inkscape:document-units="pt" inkscape:object-paths="true" inkscape:pagecheckerboard="true" inkscape:pageopacity="0.0" inkscape:pageshadow="2" inkscape:showpageshadow="false" inkscape:snap-bbox="true" inkscape:snap-global="true" inkscape:snap-intersection-paths="true" inkscape:snap-midpoints="true" inkscape:snap-nodes="false" inkscape:snap-smooth-nodes="true" inkscape:window-height="706" inkscape:window-maximized="1" inkscape:window-width="1366" inkscape:window-x="-8" inkscape:window-y="-8" inkscape:zoom="6.2578125" pagecolor="#ffffff" showgrid="false" showguides="true" units="pt">
	<inkscape:grid  id="grid1378" type="xygrid"></inkscape:grid>
	<sodipodi:guide  id="guide1380" inkscape:locked="false" orientation="78.000048,0" position="0.97013831,21.607643">
		</sodipodi:guide>
	<sodipodi:guide  id="guide1382" inkscape:locked="false" orientation="0,78.000005" position="0.97013831,0.97013129">
		</sodipodi:guide>
	<sodipodi:guide  id="guide1384" inkscape:locked="false" orientation="-78.000048,0" position="21.607639,0.97013129">
		</sodipodi:guide>
	<sodipodi:guide  id="guide1386" inkscape:locked="false" orientation="0,-78.000005" position="21.607639,21.607643">
		</sodipodi:guide>
</sodipodi:namedview>
<g id="cookies" transform="translate(0,-274.42223)" inkscape:groupmode="layer" inkscape:label="Icon">
	<path class="st0" d="M15.7,300.9c-0.5-1.5-0.7-3.1-0.7-4.8c0-9.4,7.6-17,17-17s17,7.6,17,17c0,1.6-0.2,3.1-0.6,4.6l0,0
		c6.8,2.5,11.5,8.7,11.5,16c0,9.5-8,17.1-17.9,17.1c-3.9,0-7.5-1.2-10.4-3.2l0,0c-2.8,2-6.2,3.2-9.9,3.2c-9.4,0-17-7.6-17-17
		C4.6,309.5,9.2,303.3,15.7,300.9L15.7,300.9z"/>
	<path id="path424" d="M32,277.2c-10.4,0-18.9,8.5-18.9,18.9c0,1.3,0.1,2.5,0.4,3.7c-6.4,3-10.7,9.5-10.7,17.1
		c0,10.4,8.5,18.9,18.9,18.9c3.8,0,7.4-1.2,10.4-3.1c3,2,6.5,3.1,10.4,3.1c10.4,0,18.9-8.5,18.9-18.9c0-7.5-4.4-14-10.7-17
		c0.2-1.2,0.4-2.5,0.4-3.7C50.9,285.6,42.4,277.2,32,277.2L32,277.2z M32,279.1c9.4,0,17,7.6,17,17c0,9.4-7.6,17-17,17
		s-17-7.6-17-17C15,286.7,22.6,279.1,32,279.1z M30.1,282.8c-0.5,0-0.9,0.4-0.9,0.9c0,0.5,0.4,0.9,0.9,0.9c0.5,0,0.9-0.4,0.9-0.9
		C31.1,283.3,30.6,282.8,30.1,282.8z M37.7,282.8c-1.6,0-2.8,1.3-2.8,2.8c0,1.6,1.3,2.8,2.8,2.8c1.6,0,2.8-1.3,2.8-2.8
		C40.5,284.1,39.2,282.8,37.7,282.8z M37.7,284.7c0.5,0,0.9,0.4,0.9,0.9c0,0.5-0.4,0.9-0.9,0.9c-0.5,0-0.9-0.4-0.9-0.9
		C36.7,285.1,37.1,284.7,37.7,284.7z M24.5,286.6c-1.6,0-2.8,1.3-2.8,2.8c0,1.6,1.3,2.8,2.8,2.8s2.8-1.3,2.8-2.8
		C27.3,287.9,26,286.6,24.5,286.6z M24.5,288.5c0.5,0,0.9,0.4,0.9,0.9c0,0.5-0.4,0.9-0.9,0.9c-0.5,0-0.9-0.4-0.9-0.9
		C23.5,288.9,23.9,288.5,24.5,288.5z M39.6,290.4c-0.5,0-0.9,0.4-0.9,0.9c0,0.5,0.4,0.9,0.9,0.9c0.5,0,0.9-0.4,0.9-0.9
		C40.5,290.8,40.1,290.4,39.6,290.4z M20.7,294.2c-0.5,0-0.9,0.4-0.9,0.9c0,0.5,0.4,0.9,0.9,0.9c0.5,0,0.9-0.4,0.9-0.9
		C21.6,294.6,21.2,294.2,20.7,294.2z M33.9,294.2c-1.6,0-2.8,1.3-2.8,2.8c0,1.6,1.3,2.8,2.8,2.8s2.8-1.3,2.8-2.8
		C36.7,295.4,35.4,294.2,33.9,294.2z M33.9,296c0.5,0,0.9,0.4,0.9,0.9c0,0.5-0.4,0.9-0.9,0.9s-0.9-0.4-0.9-0.9
		C32.9,296.5,33.4,296,33.9,296z M43.3,296c-1.6,0-2.8,1.3-2.8,2.8c0,1.6,1.3,2.8,2.8,2.8c1.6,0,2.8-1.3,2.8-2.8
		C46.2,297.3,44.9,296,43.3,296z M43.3,297.9c0.5,0,0.9,0.4,0.9,0.9c0,0.5-0.4,0.9-0.9,0.9c-0.5,0-0.9-0.4-0.9-0.9
		C42.4,298.3,42.8,297.9,43.3,297.9z M28.2,297.9c-0.5,0-0.9,0.4-0.9,0.9c0,0.5,0.4,0.9,0.9,0.9c0.5,0,0.9-0.4,0.9-0.9
		C29.2,298.4,28.7,297.9,28.2,297.9z M14,301.6c2.4,7.7,9.6,13.3,18,13.3c2.2,0,4.4-0.4,6.4-1.1c0.2,1,0.2,1.9,0.2,3
		c0,9.4-7.6,17-17,17s-17-7.6-17-17C4.6,310.1,8.4,304.4,14,301.6L14,301.6z M50,301.6c5.5,2.8,9.3,8.5,9.3,15.2c0,9.4-7.6,17-17,17
		c-3.2,0-6.2-0.9-8.8-2.4c4.2-3.5,6.9-8.7,6.9-14.6c0-1.3-0.1-2.5-0.3-3.8C44.8,310.8,48.5,306.7,50,301.6z M28.2,303.6
		c-1.6,0-2.8,1.3-2.8,2.8c0,1.6,1.3,2.8,2.8,2.8s2.8-1.3,2.8-2.8C31.1,304.9,29.8,303.6,28.2,303.6z M37.7,303.6
		c-0.5,0-0.9,0.4-0.9,0.9c0,0.5,0.4,0.9,0.9,0.9c0.5,0,0.9-0.4,0.9-0.9C38.6,304,38.2,303.6,37.7,303.6z M28.2,305.5
		c0.5,0,0.9,0.4,0.9,0.9c0,0.5-0.4,0.9-0.9,0.9c-0.5,0-0.9-0.4-0.9-0.9C27.3,305.9,27.7,305.5,28.2,305.5z M52.8,307.4
		c-1.6,0-2.8,1.3-2.8,2.8c0,1.6,1.3,2.8,2.8,2.8s2.8-1.3,2.8-2.8C55.6,308.6,54.3,307.4,52.8,307.4z M13.1,309.3
		c-1.6,0-2.8,1.3-2.8,2.8c0,1.6,1.3,2.8,2.8,2.8c1.6,0,2.8-1.3,2.8-2.8C16,310.5,14.7,309.3,13.1,309.3z M52.8,309.3
		c0.5,0,0.9,0.4,0.9,0.9c0,0.5-0.4,0.9-0.9,0.9c-0.5,0-0.9-0.4-0.9-0.9C51.8,309.7,52.2,309.3,52.8,309.3z M13.1,311.1
		c0.5,0,0.9,0.4,0.9,0.9c0,0.5-0.4,0.9-0.9,0.9c-0.5,0-0.9-0.4-0.9-0.9C12.2,311.5,12.6,311.1,13.1,311.1z M45.2,313
		c-1.6,0-2.8,1.3-2.8,2.8c0,1.6,1.3,2.8,2.8,2.8c1.6,0,2.8-1.3,2.8-2.8C48,314.3,46.8,313,45.2,313z M7.5,314.9
		c-0.5,0-0.9,0.4-0.9,0.9c0,0.5,0.4,0.9,0.9,0.9c0.5,0,0.9-0.4,0.9-0.9C8.4,315.3,8,314.9,7.5,314.9z M56.5,314.9
		c-0.5,0-0.9,0.4-0.9,0.9c0,0.5,0.4,0.9,0.9,0.9c0.5,0,0.9-0.4,0.9-0.9C57.5,315.3,57.1,314.9,56.5,314.9z M45.2,314.9
		c0.5,0,0.9,0.4,0.9,0.9c0,0.5-0.4,0.9-0.9,0.9c-0.5,0-0.9-0.4-0.9-0.9C44.3,315.3,44.7,314.9,45.2,314.9z M20.7,318.7
		c-0.5,0-0.9,0.4-0.9,0.9c0,0.5,0.4,0.9,0.9,0.9c0.5,0,0.9-0.4,0.9-0.9C21.6,319.1,21.2,318.7,20.7,318.7z M33.9,318.7
		c-0.5,0-0.9,0.4-0.9,0.9c0,0.5,0.4,0.9,0.9,0.9c0.5,0,0.9-0.4,0.9-0.9C34.8,319.1,34.4,318.7,33.9,318.7z M13.1,318.7
		c-1.6,0-2.8,1.3-2.8,2.8c0,1.6,1.3,2.8,2.8,2.8s2.8-1.3,2.8-2.8C16,320,14.7,318.7,13.1,318.7z M28.2,318.7c-1.6,0-2.8,1.3-2.8,2.8
		c0,1.6,1.3,2.8,2.8,2.8c1.6,0,2.8-1.3,2.8-2.8C31.1,320,29.8,318.7,28.2,318.7z M52.8,318.7c-1.6,0-2.8,1.3-2.8,2.8
		c0,1.6,1.3,2.8,2.8,2.8s2.8-1.3,2.8-2.8C55.6,320,54.3,318.7,52.8,318.7z M47.1,320.6c-0.5,0-0.9,0.4-0.9,0.9
		c0,0.5,0.4,0.9,0.9,0.9c0.5,0,0.9-0.4,0.9-0.9C48,321,47.6,320.6,47.1,320.6z M13.1,320.6c0.5,0,0.9,0.4,0.9,0.9
		c0,0.5-0.4,0.9-0.9,0.9c-0.5,0-0.9-0.4-0.9-0.9C12.2,321,12.6,320.6,13.1,320.6z M28.2,320.6c0.5,0,0.9,0.4,0.9,0.9
		c0,0.5-0.4,0.9-0.9,0.9c-0.5,0-0.9-0.4-0.9-0.9C27.3,321,27.7,320.6,28.2,320.6z M52.8,320.6c0.5,0,0.9,0.4,0.9,0.9
		c0,0.5-0.4,0.9-0.9,0.9c-0.5,0-0.9-0.4-0.9-0.9C51.8,321,52.2,320.6,52.8,320.6z M43.3,324.3c-1.6,0-2.8,1.3-2.8,2.8
		c0,1.6,1.3,2.8,2.8,2.8c1.6,0,2.8-1.3,2.8-2.8C46.2,325.6,44.9,324.3,43.3,324.3z M20.7,326.2c-1.6,0-2.8,1.3-2.8,2.8
		c0,1.6,1.3,2.8,2.8,2.8s2.8-1.3,2.8-2.8C23.5,327.5,22.2,326.2,20.7,326.2z M43.3,326.2c0.5,0,0.9,0.4,0.9,0.9
		c0,0.5-0.4,0.9-0.9,0.9s-0.9-0.4-0.9-0.9C42.4,326.6,42.8,326.2,43.3,326.2z M28.2,326.2c-0.5,0-0.9,0.4-0.9,0.9
		c0,0.5,0.4,0.9,0.9,0.9c0.5,0,0.9-0.4,0.9-0.9C29.2,326.7,28.7,326.2,28.2,326.2z M50.9,326.2c-0.5,0-0.9,0.4-0.9,0.9
		c0,0.5,0.4,0.9,0.9,0.9c0.5,0,0.9-0.4,0.9-0.9C51.8,326.7,51.4,326.2,50.9,326.2z M20.7,328.1c0.5,0,0.9,0.4,0.9,0.9
		c0,0.5-0.4,0.9-0.9,0.9s-0.9-0.4-0.9-0.9C19.7,328.5,20.1,328.1,20.7,328.1z"/>
</g>
</svg>
