<?xml version="1.0" encoding="utf-8"?>
<!-- Generator: Adobe Illustrator 25.0.1, SVG Export Plug-In . SVG Version: 6.00 Build 0)  -->
<svg version="1.1" id="Layer_1" xmlns="http://www.w3.org/2000/svg" xmlns:xlink="http://www.w3.org/1999/xlink" x="0px" y="0px"
	 viewBox="0 0 48 48" style="enable-background:new 0 0 48 48;" xml:space="preserve">
<style type="text/css">
	.st0{fill:#FFFFFF;}
	.st1{fill-rule:evenodd;clip-rule:evenodd;}
</style>
<g id="Pen">
	<polygon class="st0" points="2.5,45.7 5.8,36.5 37.7,4.3 39.3,5.4 42.8,2.1 45.9,5.4 42.6,8.6 44.1,10 11.6,42.1 	"/>
	<path class="st1" d="M47,5c0,0.3-0.1,0.5-0.3,0.7c0,0-0.1,0.1-0.1,0.1l-2.7,2.7l0.7,0.7c0,0,0.1,0.1,0.1,0.1C44.9,9.5,45,9.8,45,10
		c0,0.3-0.1,0.5-0.3,0.7c0,0-0.1,0.1-0.1,0.1L12.9,42.5c-0.1,0.2-0.3,0.4-0.5,0.5l-9.8,3.8c-0.1,0-0.1,0.1-0.2,0.1l0,0c0,0,0,0,0,0
		c-0.1,0-0.2,0-0.3,0c-0.1,0-0.2,0-0.3,0c0,0,0,0-0.1,0c0,0,0,0,0,0c-0.1,0-0.2-0.1-0.2-0.1c0,0-0.1-0.1-0.1-0.1s-0.1-0.1-0.1-0.1
		c-0.1-0.1-0.1-0.2-0.1-0.2c0,0,0,0,0,0c0,0,0,0,0-0.1c0-0.1,0-0.2,0-0.3c0-0.1,0-0.2,0-0.3c0,0,0,0,0,0l0,0c0-0.1,0-0.1,0.1-0.2
		L5,35.7c0.1-0.2,0.3-0.4,0.5-0.5L33.2,7.4c-0.3-0.8-1-1.4-2-1.4c-0.6,0-1.2,0.3-1.5,0.7l0,0l-3.2,3.2l0,0l-6.8,6.8
		c-0.4,0.4-1,0.4-1.4,0c-0.4-0.4-0.4-1,0-1.4l10-10c0,0,0,0,0.1,0C29.1,4.5,30.1,4,31.3,4C32.7,4,34,4.8,34.7,6l2.5-2.5
		c0,0,0.1-0.1,0.1-0.1C37.5,3.1,37.7,3,38,3c0.3,0,0.5,0.1,0.7,0.3c0,0,0.1,0.1,0.1,0.1l0.7,0.7l2.7-2.7c0,0,0.1-0.1,0.1-0.1
		C42.5,1.1,42.7,1,43,1c0.3,0,0.5,0.1,0.7,0.3c0,0,0.1,0.1,0.1,0.1l2.8,2.8c0,0,0.1,0.1,0.1,0.1C46.9,4.5,47,4.8,47,5z M3.9,44.2
		l6.4-2.5l-3.9-3.9L3.9,44.2z M38,5.4L7.4,36l4.6,4.6L42.6,10L38,5.4z M43,3.4l-2.1,2.1l1.6,1.6L44.6,5L43,3.4z"/>
</g>
</svg>
