<?xml version="1.0" encoding="utf-8"?>
<!-- Generator: Adobe Illustrator 25.0.1, SVG Export Plug-In . SVG Version: 6.00 Build 0)  -->
<svg version="1.1" id="Layer_1" xmlns="http://www.w3.org/2000/svg" xmlns:xlink="http://www.w3.org/1999/xlink" x="0px" y="0px"
	 viewBox="0 0 24 24" style="enable-background:new 0 0 24 24;" xml:space="preserve">
<style type="text/css">
	.st0{display:none;}
	.st1{fill:#FFFFFF;}
</style>
<g id="grid" class="st0">
</g>
<g id="pencil">
	<polygon class="st1" points="0.7,23.3 2,18.3 20,0.5 23.6,4.1 5.7,22.2 	"/>
	<path d="M0.5,24c0,0,0.1,0,0.1,0l5.1-1.4c0,0,0,0,0,0c0.1,0,0.1-0.1,0.2-0.1l0,0l0,0L23.6,4.8c0.5-0.5,0.5-1.2,0-1.7l-2.7-2.7
		c-0.5-0.5-1.2-0.5-1.7,0L1.6,18l0,0l0,0c-0.1,0.1-0.1,0.1-0.1,0.2c0,0,0,0,0,0L0,23.4c0,0.2,0,0.4,0.1,0.5C0.2,23.9,0.4,24,0.5,24z
		 M5.6,21.4l-1.2-1.2L20.1,4.6l1.2,1.2L5.6,21.4z M19.9,1.1C20,1,20.1,1,20.2,1.1l2.7,2.7C23,3.8,23,3.9,23,3.9c0,0,0,0.1-0.1,0.2
		l-1,1l-3-3L19.9,1.1z M18.2,2.8l1.2,1.2L3.8,19.5l-1.2-1.2L18.2,2.8z M2.2,19.3l2.5,2.5l-3.5,1L2.2,19.3z"/>
</g>
</svg>
