<?xml version="1.0" encoding="utf-8"?>
<!-- Generator: Adobe Illustrator 25.0.1, SVG Export Plug-In . SVG Version: 6.00 Build 0)  -->
<svg version="1.1" id="Capa_1" xmlns="http://www.w3.org/2000/svg" xmlns:xlink="http://www.w3.org/1999/xlink" x="0px" y="0px"
	 viewBox="0 0 438.9 438.9" style="enable-background:new 0 0 438.9 438.9;" xml:space="preserve">
<style type="text/css">
	.st0{fill:#FFFFFF;}
</style>
<g id="toilet_x5F_paper">
	<path class="st0" d="M132,31C68.5,31,17,95.2,17,174.5S68.5,318,132,318h120v93l26-12.6l36,17.6l31-17.6l24,17.6l33-17.6l22,17.6
		V146l-22-63l-47-44.1L308.7,31H132z"/>
	<path d="M306.6,12.8H146.1c-1.2,0-2.4,0.2-3.5,0.5c-3.4-0.3-6.8-0.5-10.3-0.5C59.4,12.8,0,84.5,0,172.6s59.4,159.8,132.3,159.8
		c3.5,0,6.9-0.2,10.3-0.5c1.1,0.3,2.3,0.5,3.5,0.5h92.5v80.2c0,0.1,0,0.1,0,0.2c0,0.5,0.1,1,0.1,1.5c0.1,0.4,0.1,0.8,0.2,1.2
		c0.1,0.4,0.2,0.7,0.3,1.1c0.2,0.5,0.3,1,0.5,1.4c0,0.1,0,0.1,0.1,0.2c0.1,0.3,0.3,0.5,0.4,0.7c0.2,0.4,0.5,0.9,0.8,1.3
		c0.2,0.3,0.5,0.6,0.8,0.9c0.3,0.3,0.6,0.7,0.9,1c0.3,0.3,0.6,0.5,0.9,0.8c0.3,0.3,0.7,0.5,1.1,0.8c0.3,0.2,0.7,0.4,1,0.5
		c0.4,0.2,0.8,0.4,1.3,0.6c0.3,0.1,0.7,0.2,1.1,0.3c0.5,0.1,0.9,0.3,1.4,0.4c0.4,0.1,0.8,0.1,1.3,0.1c0.3,0,0.7,0.1,1,0.1
		c0.1,0,0.2,0,0.2,0c0.4,0,0.9-0.1,1.3-0.1c0.4-0.1,0.9-0.1,1.3-0.2c0.3-0.1,0.7-0.2,1-0.3c0.5-0.2,1-0.3,1.4-0.5
		c0.1,0,0.1,0,0.2-0.1l25.2-11.7l29,12c0.1,0,0.2,0.1,0.3,0.1c0.6,0.2,1.2,0.4,1.8,0.5c0.2,0,0.4,0.1,0.6,0.1
		c0.7,0.1,1.5,0.2,2.2,0.2c0,0,0,0,0,0c0,0,0,0,0,0s0,0,0,0c0,0,0,0,0,0c0.8,0,1.6-0.1,2.4-0.3c0.2,0,0.4-0.1,0.6-0.1
		c0.8-0.2,1.6-0.4,2.4-0.8c0,0,0,0,0.1,0l24.2-11.3l18.3,10.7c0.1,0.1,0.2,0.1,0.3,0.1c0.6,0.3,1.2,0.6,1.8,0.8
		c0.2,0.1,0.4,0.1,0.6,0.2c0.7,0.2,1.4,0.4,2.2,0.5c0.1,0,0.2,0,0.4,0c0.5,0.1,0.9,0.1,1.4,0.1c0.1,0,0.3,0,0.4,0
		c0.5,0,1.1-0.1,1.6-0.2c0.3-0.1,0.7-0.1,1-0.2c0.7-0.2,1.4-0.4,2-0.7c0.2-0.1,0.3-0.1,0.5-0.2l0.1-0.1c0,0,0,0,0,0l24-11.2
		l17.8,10.4c2.1,1.5,4.7,2.5,7.6,2.5c7.2,0,13-5.8,13-13V172.6C438.9,84.5,379.6,12.8,306.6,12.8z M26.1,172.6
		c0-73.7,47.6-133.7,106.2-133.7s106.2,60,106.2,133.7s-47.6,133.7-106.2,133.7S26.1,246.4,26.1,172.6z M204.6,306.4
		c13.1-10.4,24.6-23.4,33.9-38.6v38.6H204.6z M395.7,386.7L371.5,398l-18.3-10.7c-3.7-2.2-8.2-2.4-12.1-0.6l-25.2,11.7l-29-12
		c-3.4-1.4-7.2-1.3-10.5,0.2l-11.8,5.5V172.6c0-55.9-23.9-105.2-60-133.7h102c58.6,0,106.2,60,106.2,133.7v217.6l-5.1-3
		C404.1,385.1,399.6,384.9,395.7,386.7z"/>
	<path d="M132.3,125.9c-22.3,0-40.4,21-40.4,46.8s18.1,46.8,40.4,46.8s40.4-21,40.4-46.8S154.6,125.9,132.3,125.9z M132.3,193.3
		c-7.8,0-14.3-9.5-14.3-20.7s6.6-20.7,14.3-20.7s14.3,9.5,14.3,20.7S140.1,193.3,132.3,193.3z"/>
</g>
</svg>
