<?xml version="1.0" encoding="utf-8"?>
<!-- Generator: Adobe Illustrator 25.0.1, SVG Export Plug-In . SVG Version: 6.00 Build 0)  -->
<svg version="1.1" id="Layer_1" xmlns="http://www.w3.org/2000/svg" xmlns:xlink="http://www.w3.org/1999/xlink" x="0px" y="0px"
	 viewBox="0 0 800 800" style="enable-background:new 0 0 800 800;" xml:space="preserve">
<style type="text/css">
	.st0{fill:#778587;}
	.st1{fill:#FFFFFF;}
	.st2{fill:#657475;}
</style>
<g id="bleach">
	<polygon class="st0" points="769.2,740.4 400.4,59.6 31.7,740.4 	"/>
	<polygon class="st1" points="31.7,740.4 499.7,740.4 266.3,308.5 	"/>
	<path d="M769.2,772.6H31.7c-11.6,0-20.6-6.4-27.1-15.5c-5.2-9-6.4-20.6-1.3-30.9L373.3,44.1c5.2-10.3,15.5-16.8,27.1-16.8
		s21.9,6.4,27.1,16.8l368.8,682.1c5.2,10.3,5.2,21.9-1.3,30.9C789.8,766.2,779.5,772.6,769.2,772.6z M84.5,709.5h631.8L400.4,125.4
		L84.5,709.5z"/>
	<g>
		<path class="st2" d="M357.9,465.8c18.1,0,29.7,3.9,34.8,7.7c3.9,1.3,7.7,1.3,10.3,0c3.9-1.3,6.4-3.9,6.4-7.7l6.4-21.9
			c1.3-5.2-1.3-11.6-6.4-14.2c-6.4-2.6-23.2-10.3-54.2-10.3c-69.6,0-118.6,49-118.6,118.6s43.8,114.8,112.2,114.8
			c23.2,0,45.1-3.9,59.3-10.3c5.2-2.6,7.7-9,6.4-14.2l-3.9-21.9c-1.3-3.9-3.9-6.4-6.4-7.7c-3.9-1.3-7.7-1.3-10.3,0
			c-9,3.9-23.2,7.7-37.4,7.7c-41.3,0-65.8-24.5-65.8-68.3C290.8,492.8,316.6,465.8,357.9,465.8z"/>
		<path class="st2" d="M550,602.4h-73.5V434.8c0-6.4-5.2-12.9-12.9-12.9h-25.8c-6.4,0-12.9,5.2-12.9,12.9v202.4
			c0,6.4,5.2,12.9,12.9,12.9H550c6.4,0,12.9-5.2,12.9-12.9v-21.9C561.6,607.6,556.4,602.4,550,602.4z"/>
	</g>
	<path d="M357.9,442.6c18.1,0,29.7,3.9,34.8,7.7c3.9,1.3,7.7,1.3,10.3,0c3.9-1.3,6.4-3.9,6.4-7.7l6.4-21.9
		c1.3-5.2-1.3-11.6-6.4-14.2c-6.4-2.6-23.2-10.3-54.2-10.3c-69.6,0-118.6,49-118.6,118.6s43.8,114.8,112.2,114.8
		c23.2,0,45.1-3.9,59.3-10.3c5.2-2.6,7.7-9,6.4-14.2l-5.2-20.6c-1.3-3.9-3.9-6.4-6.4-7.7c-3.9-1.3-7.7-1.3-10.3,0
		c-9,3.9-23.2,7.7-37.4,7.7c-41.3,0-65.8-24.5-65.8-68.3C290.8,469.6,316.6,442.6,357.9,442.6z"/>
	<path d="M550,579.2h-73.5V411.6c0-6.4-5.2-12.9-12.9-12.9h-25.8c-6.4,0-12.9,5.2-12.9,12.9V614c0,6.4,5.2,12.9,12.9,12.9H550
		c6.4,0,12.9-5.2,12.9-12.9v-21.9C561.6,584.4,556.4,579.2,550,579.2z"/>
</g>
</svg>
