<?xml version="1.0" encoding="utf-8"?>
<!-- Generator: Adobe Illustrator 25.0.1, SVG Export Plug-In . SVG Version: 6.00 Build 0)  -->
<svg version="1.1"
	 id="svg831" inkscape:export-filename="C:\Users\User\Desktop\Done Januari II\E\15 - Restaurant.png" inkscape:export-xdpi="576" inkscape:export-ydpi="576" inkscape:version="1.1.1 (3bf5ae0d25, 2021-09-20)" sodipodi:docname="#1.svg" xmlns:cc="http://creativecommons.org/ns#" xmlns:dc="http://purl.org/dc/elements/1.1/" xmlns:inkscape="http://www.inkscape.org/namespaces/inkscape" xmlns:rdf="http://www.w3.org/1999/02/22-rdf-syntax-ns#" xmlns:sodipodi="http://sodipodi.sourceforge.net/DTD/sodipodi-0.dtd" xmlns:svg="http://www.w3.org/2000/svg"
	 xmlns="http://www.w3.org/2000/svg" xmlns:xlink="http://www.w3.org/1999/xlink" x="0px" y="0px" viewBox="0 0 64 64"
	 style="enable-background:new 0 0 64 64;" xml:space="preserve">
<style type="text/css">
	.st0{fill:#FFFFFF;}
</style>
<sodipodi:namedview  bordercolor="#666666" borderopacity="1.0" id="base" inkscape:bbox-nodes="true" inkscape:current-layer="layer1" inkscape:cx="42.666667" inkscape:cy="42.666667" inkscape:document-units="pt" inkscape:object-paths="true" inkscape:pagecheckerboard="true" inkscape:pageopacity="0.0" inkscape:pageshadow="2" inkscape:showpageshadow="false" inkscape:snap-bbox="true" inkscape:snap-global="true" inkscape:snap-intersection-paths="true" inkscape:snap-midpoints="true" inkscape:snap-nodes="false" inkscape:snap-smooth-nodes="true" inkscape:window-height="1001" inkscape:window-maximized="1" inkscape:window-width="1920" inkscape:window-x="-9" inkscape:window-y="41" inkscape:zoom="3.2460938" pagecolor="#ffffff" showgrid="false" showguides="true" units="pt">
	<inkscape:grid  id="grid1378" type="xygrid"></inkscape:grid>
	<sodipodi:guide  id="guide1380" inkscape:locked="false" orientation="78.000048,0" position="0.97013831,21.607643">
		</sodipodi:guide>
	<sodipodi:guide  id="guide1382" inkscape:locked="false" orientation="0,78.000005" position="0.97013831,0.97013129">
		</sodipodi:guide>
	<sodipodi:guide  id="guide1384" inkscape:locked="false" orientation="-78.000048,0" position="21.607639,0.97013129">
		</sodipodi:guide>
	<sodipodi:guide  id="guide1386" inkscape:locked="false" orientation="0,-78.000005" position="21.607639,21.607643">
		</sodipodi:guide>
</sodipodi:namedview>
<g id="coffee" transform="translate(0,-274.42223)" inkscape:groupmode="layer" inkscape:label="Icon">
	<polygon class="st0" points="31.2,278.2 27.2,278.2 26.8,282.5 22.8,282.5 16.9,285.4 12.5,285.1 8,286.1 7,287.7 9.2,288.3 
		10.9,291.1 12.5,294.4 15.6,296.8 17.4,297.5 18.7,309.4 21.8,309.9 21.8,313.9 19.5,313.9 17.4,320.4 16.4,327 16.4,331.3 
		17.4,332.5 23.4,334.2 29.2,334.6 34.6,334 38.2,333.6 41.7,334.6 45,332.9 50.3,334.6 54.1,332.4 54.1,327.5 50.6,325.9 49.8,322 
		47.1,320.1 43,321.5 41.7,322.2 39.1,313.6 37,314 37,310.3 40.2,308.8 41.2,295 43.8,295.2 46.1,293.3 50,293.2 51.5,294.4 
		51.9,307.2 52.7,310.3 55.8,310.2 57.3,308.8 57.3,292.9 54.8,288.7 51.5,287.7 45.9,287.7 45.9,286.1 43.8,285.3 41.2,285.2 
		35.9,282.5 31.6,282.5 	"/>
	
		<path id="path3081" sodipodi:nodetypes="ccsccccsscsscsccccssssscccccccccccccccccccccscccccccccccccccccccccccccscccscccccccccccccccccccccsccsscsscccsccccsccccscccccccccccccccccccccccccccccsccccccscccccscccsssccccccsccscccccccccccccccc" d="
		M41,309.4l1.2-13.1h1.1c1.4,0,2.6-0.9,3.1-2.1l3.3,0c0.7,0,1.2,0.5,1.2,1.2l0,12.9c0,1.7,1.4,3.1,3.1,3.1h1.1
		c1.7,0,3.1-1.4,3.1-3.1v-14c0-4.1-3.3-7.4-7.4-7.4h-3.7c-0.3-1.2-1.4-2.1-2.8-2.1h-1.9l-6.3-3.1c-0.1-0.1-0.3-0.1-0.4-0.1h-3.4
		v-2.3c0-1.1-0.9-2-2-2h-2.2c0,0,0,0-0.1,0h0c-1.1,0-2,0.9-2,2v2.3h-3.4c-0.1,0-0.3,0-0.4,0.1l-6.1,3.1c-3.8-0.8-8.6-0.5-10.4,2.6
		c-0.3,0.8,0.1,1.4,0.8,1.4c1.5,0,2.1,0.4,2.5,0.9c1.2,2,1.7,4.4,3.1,6.1c0.9,1,2.3,1.9,4.2,2.5l1,11.1c0,0.5,0.4,0.8,0.8,0.9
		l2.4,0.4v2.3c-0.3-0.1-0.7-0.1-1-0.2c-0.4-0.1-0.8,0.1-1,0.5c-3,6.5-3.3,12.3-3.3,18.7c0,0.3,0.1,0.6,0.4,0.7
		c6.5,3.5,14.3,3.2,22.2,1.8c1.8,1.3,4.1,1.6,5.9,0.7c0.8-0.4,1.3-0.9,1.5-1.4c1.1,0.9,2.7,1.5,4.3,1.5c2.8,0,5.2-1.5,5.9-3.8
		c0.1-0.4,0.1-0.9-0.1-1.3c0.2-0.4,0.3-0.9,0.1-1.3c-0.6-1.8-2.2-3.1-4.3-3.6c0.3-1.2,0.1-2.4-0.4-3.4c-0.2-0.4-0.6-0.7-1-0.8
		c-0.1-0.4-0.4-0.8-0.8-1c-1.1-0.6-2.3-0.7-3.5-0.4c-1.1,0.2-2.1,0.8-3.1,1.6c-0.5-2.6-1.3-5.2-2.7-8c-0.2-0.4-0.7-0.6-1.1-0.5
		c-0.3,0.1-0.6,0.2-1,0.2v-2.3l2.4-0.4C40.7,310.1,41,309.9,41,309.4L41,309.4z M30.5,279.2v3.2c0,0.6,0.5,1,1,0.9h4l3.6,1.8
		l-4.5,0.6H24l-4.5-0.6l3.6-1.8h4.1c0.5,0,0.9-0.4,0.9-0.9v-3.2H30.5z M15.5,286.4l0.9,9.7c-1.2-0.5-2-1.1-2.6-1.7
		c-1.6-1.8-1.7-4.4-3.1-6c-0.5-0.6-1.2-1.1-2.2-1.3C10.7,285.9,13.1,286,15.5,286.4z M44.7,293.1c-0.1,0.7-0.7,1.3-1.4,1.3h-0.9
		l0.7-7.8h1.3c0.6,0,1,0.5,1,1.1L44.7,293.1z M17.4,286.7l5.6,0.8l1,17.4l-5-0.8L17.4,286.7z M41.2,286.7
		c-0.5,5.8-1.1,11.6-1.6,17.5l-5,0.8l1-17.4L41.2,286.7z M24.9,287.7h8.8l-1,17.5h-6.8L24.9,287.7z M47.1,288.7h3.7
		c3.1,0,5.5,2.5,5.5,5.5v14c0,0.7-0.5,1.2-1.2,1.2H54c-0.7,0-1.2-0.5-1.2-1.2V307h1.1c0.5,0,0.9-0.4,0.9-0.9c0-0.5-0.4-0.9-0.9-0.9
		h-1.1l0-2.4h1.1c0.5,0,0.9-0.4,0.9-0.9c0-0.5-0.4-0.9-0.9-0.9h-1.1l0-2.4h1.1c0.5,0,0.9-0.4,0.9-0.9c0-0.5-0.4-0.9-0.9-0.9h-1.1
		v-1.2c0-1.7-1.4-3.1-3.1-3.1l-3,0L47.1,288.7z M39.4,306.1l-0.2,2.4l-5.7,0.9h-8.4l-5.7-0.9l-0.2-2.4l5.7,0.9c2.9,0,5.9,0,8.9,0
		L39.4,306.1z M35.9,310.9v2.3c-4,0.6-9.1,0.5-13.2-0.1v-2.2c0.8,0.1,1.5,0.3,2.3,0.4h8.6C34.4,311.2,35.1,311.1,35.9,310.9
		L35.9,310.9z M38.3,314.6c1.4,3,2.2,5.8,2.6,8.6c-0.2,0.4-0.4,0.8-0.5,1.3c-1.1-0.2-2.1,0-3.1,0.5c-0.4,0.2-0.7,0.6-0.8,1
		c-0.4,0.1-0.8,0.4-1,0.8c-0.3,0.6-0.5,1.3-0.5,2c-5.7,0.3-12.3,0.5-17.5-1.6c0.2-4.2,0.8-8.1,2.8-12.5
		C26.3,315.7,32.7,315.9,38.3,314.6L38.3,314.6z M21.8,317.9c-0.6,0-1.1,0.5-1.1,1.1c0,0.6,0.5,1.1,1.1,1.1c0.6,0,1.1-0.5,1.1-1.1
		C22.8,318.4,22.4,317.9,21.8,317.9z M47.8,321.7l-4.2,4.2c-0.5-0.4-0.9-0.7-1.4-0.9c0.2-0.8,0.7-1.5,1.3-2.2
		C44.9,321.6,46.4,321.2,47.8,321.7z M49.1,323c0.4,1.2,0.3,2.9-1.1,4.3c-0.7,0.7-1.5,1.2-2.4,1.4c-0.2-0.5-0.5-1-0.8-1.5L49.1,323z
		 M43.1,328c1.2,1.2,1.3,2.9,0.9,4.1l-5.4-5.4C40.1,326.2,41.6,326.6,43.1,328z M50.6,327c1.4,0.3,2.4,1.2,2.9,2.2h-1.8
		c-0.5,0-0.9,0.3-0.9,0.9c0,0.6,0.4,0.9,0.9,0.9h1.7c-0.6,1.2-1.9,2.3-3.8,2.3c-1.6,0-2.9-0.7-3.6-1.6c0.1-0.4,0.1-0.8,0.1-1.3
		c1.2-0.3,2.3-0.9,3.3-1.9C49.9,328.2,50.3,327.6,50.6,327L50.6,327z M37.2,328l5.4,5.4c-1.2,0.4-3,0.3-4.3-1.1
		C37,330.9,36.8,329.2,37.2,328z M17.4,329.2c5.1,1.9,12.1,2.1,17.8,1.4c0.2,0.8,0.6,1.5,1.1,2.2c-6.3,0.8-13.3,1-19-1.6L17.4,329.2
		z"/>
</g>
</svg>
