<?xml version="1.0" ?><svg viewBox="0 0 64 64" xmlns="http://www.w3.org/2000/svg"><title/><g id="wipe-hands"><circle cx="38" cy="37" r="23" style="fill:#edebdc"/><path d="M16.441,18.346,30.8,3.99a2.476,2.476,0,0,1,3.5,0h0a2.477,2.477,0,0,1,0,3.5L26.887,14.9l10.505,10.5L28.9,33.9a44.77,44.77,0,0,1-7.322,5.921l-5.957,3.856L4.536,32.585s3.669-5.4,4.291-8.677L13.071,8.859A2.72,2.72,0,0,1,16,6.659h0a2.719,2.719,0,0,1,2.444,3.008Z" style="fill:#fff;stroke:#4c241d;stroke-linecap:round;stroke-linejoin:round;stroke-width:2px"/><path d="M24.673,16.25,37.216,4.573a2.476,2.476,0,0,1,3.5,0h0a2.476,2.476,0,0,1,0,3.5L27.237,21.556" style="fill:#fff;stroke:#4c241d;stroke-linecap:round;stroke-linejoin:round;stroke-width:2px"/><polygon points="31.452 37.25 22.452 30.25 20.452 20.25 26 19 29.452 10.25 42.452 11.25 50.452 6.25 55.452 12.25 54.452 16.25 59.452 24.25 52.452 35.25 40.452 33.25 31.452 37.25" style="fill:#c1dbdc;stroke:#4c241d;stroke-linecap:round;stroke-linejoin:round;stroke-width:2px"/><line style="fill:none;stroke:#4c241d;stroke-linecap:round;stroke-linejoin:round;stroke-width:2px" x1="47.452" x2="42.452" y1="12.25" y2="11.25"/><line style="fill:none;stroke:#4c241d;stroke-linecap:round;stroke-linejoin:round;stroke-width:2px" x1="49.452" x2="54.452" y1="17.25" y2="16.25"/><line style="fill:none;stroke:#4c241d;stroke-linecap:round;stroke-linejoin:round;stroke-width:2px" x1="26" x2="32" y1="19" y2="18"/><path d="M30.441,36.346,44.8,21.99a2.476,2.476,0,0,1,3.5,0h0a2.477,2.477,0,0,1,0,3.5L40.887,32.9l10.505,10.5L42.9,51.9a44.77,44.77,0,0,1-7.322,5.921l-5.957,3.856L18.536,50.585s3.669-5.4,4.291-8.677l4.244-15.049A2.72,2.72,0,0,1,30,24.659h0a2.719,2.719,0,0,1,2.444,3.008Z" style="fill:#fff;stroke:#4c241d;stroke-linecap:round;stroke-linejoin:round;stroke-width:2px"/><path d="M37.736,36.054l13.48-13.481a2.476,2.476,0,0,1,3.5,0h0a2.476,2.476,0,0,1,0,3.5L41.237,39.556" style="fill:#fff;stroke:#4c241d;stroke-linecap:round;stroke-linejoin:round;stroke-width:2px"/><path d="M41.237,39.556,51.193,29.6a2.51,2.51,0,0,1,3.549,0h0a2.51,2.51,0,0,1,0,3.549L44.786,43.1" style="fill:#fff;stroke:#4c241d;stroke-linecap:round;stroke-linejoin:round;stroke-width:2px"/><path d="M44.249,43.641l7.622-7.622a2.442,2.442,0,0,1,3.454,0h0a2.443,2.443,0,0,1,0,3.455l-8.661,8.66" style="fill:#fff;stroke:#4c241d;stroke-linecap:round;stroke-linejoin:round;stroke-width:2px"/><line style="fill:none;stroke:#4c241d;stroke-linecap:round;stroke-linejoin:round;stroke-width:2px" x1="54" x2="54" y1="52" y2="54"/><line style="fill:none;stroke:#4c241d;stroke-linecap:round;stroke-linejoin:round;stroke-width:2px" x1="54" x2="54" y1="58" y2="60"/><line style="fill:none;stroke:#4c241d;stroke-linecap:round;stroke-linejoin:round;stroke-width:2px" x1="50" x2="52" y1="56" y2="56"/><line style="fill:none;stroke:#4c241d;stroke-linecap:round;stroke-linejoin:round;stroke-width:2px" x1="56" x2="58" y1="56" y2="56"/></g></svg>