<?xml version="1.0" encoding="utf-8"?>
<!-- Generator: Adobe Illustrator 25.0.1, SVG Export Plug-In . SVG Version: 6.00 Build 0)  -->
<svg version="1.1" id="Capa_1" xmlns="http://www.w3.org/2000/svg" xmlns:xlink="http://www.w3.org/1999/xlink" x="0px" y="0px"
	 viewBox="0 0 800 800" style="enable-background:new 0 0 800 800;" xml:space="preserve">
<style type="text/css">
	.st0{fill:#FFFFFF;}
</style>
<g id="paper-stack">
	<polygon class="st0" points="608,96 608,178 699,178 699,786 338,786 338,703 251,703 251,96 	"/>
	<polygon points="185.2,0 81.2,145.6 205.9,59.4 	"/>
	<path d="M631.3,157.3V75.6h-91.7V1H220.6l25.7,73.4L84.7,186v438.6h148.2v93.7h87.6V800h398.4V157.3H631.3z M270.2,681v-56.4h269.3
		V113h54.4v568H270.2L270.2,681z M681.5,762.7H357.8v-44.4h273.5V194.7h50.2L681.5,762.7L681.5,762.7z"/>
</g>
</svg>
