<?xml version="1.0" encoding="utf-8"?>
<!-- Generator: Adobe Illustrator 25.0.1, SVG Export Plug-In . SVG Version: 6.00 Build 0)  -->
<svg version="1.1" id="Capa_1" xmlns="http://www.w3.org/2000/svg" xmlns:xlink="http://www.w3.org/1999/xlink" x="0px" y="0px"
	 viewBox="0 0 800 800" style="enable-background:new 0 0 800 800;" xml:space="preserve">
<style type="text/css">
	.st0{fill:#FFFFFF;}
</style>
<g id="soap">
	<path class="st0" d="M735.1,703.1l-20.7,53.2l-69.2,33.4H156.7L96,766.6l-27.3-53.2l-2.4-40.5l23.1-46.6l32-25.4l50.8-8h105.9
		L344,128l34.8-38.6h27.3V12.2h110.1v73.9h22.6l177.9,314.8l18.4,75.3V703.1z M452.2,218.4l127.5,238.1l47.7,7.5l12.1-38.1
		L512.9,190.1l-39.5-5.2L452.2,218.4z"/>
	<circle class="st0" cx="180.9" cy="144.9" r="23.3"/>
	<circle class="st0" cx="161.7" cy="400" r="34.9"/>
	<circle class="st0" cx="315.9" cy="303.3" r="23.3"/>
	<circle class="st0" cx="295.4" cy="562.1" r="60.6"/>
	<path id="XMLID_452_" d="M380.3,582.9c1.6-6.7,2.5-13.6,2.5-20.7c0-48.2-39.2-87.4-87.4-87.4S208,513.9,208,562.1
		c0,6.1,0.6,12,1.8,17.8h-48.2c-60.7,0-110,49.4-110,110c0,60.7,49.4,110,110,110H355c60.7,0,110-49.4,110-110
		C465,638.6,429,594.5,380.3,582.9z M295.4,501.5c33.4,0,60.6,27.2,60.6,60.6s-27.2,60.6-60.6,60.6s-60.6-27.2-60.6-60.6
		S262,501.5,295.4,501.5z M355,773.2H161.7c-35.9,0-66.6-22.8-78.2-54.7c13.8,6,28.8,9.2,44,9.2h261.8c7.4,0,13.4-6,13.4-13.4
		c0-7.4-6-13.4-13.4-13.4H127.4c-17.5,0-34.7-5.6-48.9-16c2.6-43.6,38.9-78.3,83.1-78.3h58.6c15.3,25.6,43.2,42.8,75.1,42.8
		c31.4,0,58.9-16.6,74.3-41.5c39,7.1,68.5,41.5,68.5,81.9C438.2,735.9,400.9,773.2,355,773.2z M748.4,484.4
		c-1.4-56.8-13.4-78.9-37.3-122.8c-3-5.5-6.2-11.5-9.7-17.9L595.1,145c-2.1-3.9-4.1-7.7-6-11.6c-13.4-26.1-28.5-55.3-59.8-62.1V13.4
		c0-7.4-6-13.4-13.4-13.4H407.1c-7.4,0-13.4,6-13.4,13.4v57.8c-34.4,6.4-60.7,36.2-67.2,78.1l-13,89.5c-1.1,7.3,3.9,14.2,11.2,15.3
		c7.3,1.2,14.2-3.9,15.3-11.2l13-89.5c4.4-28.3,23.1-56.8,54.9-56.8h107.4c23.6,0,34.4,18.6,50,49c2,4,4.1,8,6.2,12l106.3,198.6
		c3.5,6.5,6.7,12.5,9.8,18.1c23.2,42.6,32.8,60.3,34.1,110.5v213.8c0,41.1-33.4,74.5-74.5,74.5H360.6c-7.4,0-13.4,6-13.4,13.4
		s6,13.4,13.4,13.4h286.5c55.9,0,101.3-45.4,101.3-101.3V484.7C748.4,484.6,748.4,484.5,748.4,484.4z M502.5,69.9h-82.1V26.8h82.1
		V69.9z M315.9,353.4c27.6,0,50-22.4,50-50c0-27.6-22.4-50-50-50c-27.6,0-50,22.4-50,50C265.9,330.9,288.3,353.4,315.9,353.4z
		 M315.9,280.1c12.8,0,23.3,10.4,23.3,23.3c0,12.8-10.4,23.3-23.3,23.3c-12.8,0-23.3-10.4-23.3-23.3
		C292.7,290.5,303.1,280.1,315.9,280.1z M319.1,368.8l-14.4,94.6c-1,6.6-6.7,11.3-13.2,11.3c-0.7,0-1.4-0.1-2.1-0.2
		c-7.3-1.1-12.3-8-11.2-15.3l14.4-94.6c1.1-7.3,8.2-13.1,15.5-11.9C315.5,353.9,320.3,361.5,319.1,368.8z M161.7,461.7
		c34,0,61.7-27.7,61.7-61.7c0-34-27.7-61.7-61.7-61.7c-34,0-61.7,27.7-61.7,61.7C99.9,434,127.6,461.7,161.7,461.7z M161.7,365.1
		c19.3,0,34.9,15.7,34.9,34.9c0,19.3-15.7,34.9-34.9,34.9c-19.3,0-34.9-15.7-34.9-34.9C126.7,380.7,142.4,365.1,161.7,365.1z
		 M282,534.6c0-7.4,6-13.4,13.4-13.4c22.6,0,40.9,18.4,40.9,40.9c0,7.4-6,13.4-13.4,13.4s-13.4-6-13.4-13.4
		c0-7.8-6.4-14.2-14.2-14.2C288,548,282,542,282,534.6z M180.9,194.9c27.6,0,50-22.4,50-50c0-27.6-22.4-50-50-50
		c-27.6,0-50,22.4-50,50C130.8,172.5,153.3,194.9,180.9,194.9z M180.9,121.6c12.8,0,23.3,10.4,23.3,23.3c0,12.8-10.4,23.3-23.3,23.3
		c-12.8,0-23.3-10.4-23.3-23.3C157.6,132.1,168.1,121.6,180.9,121.6z M592.8,479c4.6,1.4,9.3,2.1,13.9,2.1c7.7,0,15.3-1.9,22.3-5.6
		c23.1-12.3,31.9-41.2,19.6-64.4c0,0,0,0,0,0L532.2,193.4c-12.3-23.2-41.2-31.9-64.4-19.6c-23.1,12.4-31.9,41.2-19.6,64.4
		l116.4,217.6C570.6,467,580.6,475.3,592.8,479z M480.4,197.4c3.1-1.7,6.5-2.4,9.8-2.4c7.4,0,14.7,4,18.4,11L625,423.6
		c5.4,10.1,1.6,22.8-8.6,28.2c-10.1,5.4-22.8,1.6-28.2-8.6L471.9,225.6C466.5,215.5,470.3,202.8,480.4,197.4z"/>
</g>
</svg>
